<?xml version="1.0" encoding="utf-8"?>
<!-- Generator: Adobe Illustrator 26.3.1, SVG Export Plug-In . SVG Version: 6.00 Build 0)  -->
<svg version="1.1" id="Laag_1" xmlns="http://www.w3.org/2000/svg" xmlns:xlink="http://www.w3.org/1999/xlink" x="0px" y="0px"
	 viewBox="0 0 1133.86 1133.86" style="enable-background:new 0 0 1133.86 1133.86;" xml:space="preserve">
<style type="text/css">
	.st0{fill:#010202;}
	.st1{fill:none;stroke:#E2E1E1;stroke-miterlimit:10;}
</style>
<path class="st0" d="M1010.99,270.59c0,0,41.06-31.31,80.58-12.32s32.34,42.09,32.34,42.09s-5.65,20.53-30.8,21.04
	c-25.15,0.51-34.39,7.7-34.39,7.7l-20.02,23.61c0,0-8.21,2.57-27.72,76.48c-19.5,73.91-48.25,117.54-48.25,117.54
	s-20.53,43.63-60.57,59.54c0,0,1.8,21.56-4.88,31.57c0,0-6.68,15.87,4.11,48.25c0.51,1.54,13.35,42.35,16.68,67.5
	c3.34,25.15,20.53,35.67,41.83,100.6c0,0,34.65,67.24,40.55,82.12c0,0,16.94,15.4,38.75,58c0,0,36.7-2.82,39.01,25.92
	c2.31,28.74-6.42,30.03-6.42,30.03s-25.66,9.5-66.47,4.49c0,0-197.1-282.17-218.66-295.65c0,0-7.7-7.7-9.24,3.85
	c-1.54,11.55,13.09,99.32-59.67,204.41l-3.46,5.39c0,0,85.46-10.39,135.89,1.15c0,0,31.57,15.01,28.49,27.33
	s-11.55,29.26-26.95,30.03s-219.43,11.16-219.43,11.16s16.17,58.13-73.14,39.27c0,0-33.88-9.62-107.4-6.16s-62.75-18.86-62.75-18.86
	s-80.46,5.77-148.98-11.55c-68.52-17.32-185.55,11.55-185.55,11.55s-44.27,15.01-45.04-5.39c-0.77-20.4,13.47-23.87,18.86-25.41
	s62.75-26.18,175.54-30.8c112.79-4.62,166.69,0.38,166.69,0.38s28.49-16.17,7.7-87.39s4.62-102.01,4.62-102.01
	s36.96-228.66,127.42-313.35s137.81-60.05,107.4-126.27s-46.19-92.77-46.19-92.77s-97.39-2.69-95.85-53.89
	c0,0,3.08-15.78,53.51-18.09s58.51-36.19,58.51-36.19s4.62-8.47,9.24-12.7c4.62-4.23-17.32-63.9-17.32-63.9s-1.54-6.54,8.47,0
	c10.01,6.54,26.18,28.49,26.18,28.49s12.7-43.5,92.39-48.12c0,0,36.96-34.65,58.51-14.63c10.97,10.18,18.55,20.86,23.35,28.9
	c4.53,7.59,6.51,16.4,5.74,25.2c-1.48,16.99-4.71,46.82-9.84,56c-7.31,13.09,17.66,45.93,17.71,56.2c0.05,12.3,5,36.96,5,36.96
	s26.56,33.88,59.67,44.27c0,0,14.63,3.85,30.03,36.19s25.79,41.96,25.79,41.96S946.19,319.09,1010.99,270.59z"/>
<g>
	<g>
		<path class="st1" d="M805.88,263.66"/>
	</g>
</g>
</svg>
