<?xml version="1.0" encoding="utf-8"?>
<!-- Generator: Adobe Illustrator 26.3.1, SVG Export Plug-In . SVG Version: 6.00 Build 0)  -->
<svg version="1.1" id="Laag_1" xmlns="http://www.w3.org/2000/svg" xmlns:xlink="http://www.w3.org/1999/xlink" x="0px" y="0px"
	 viewBox="0 0 903.5 237.89" style="enable-background:new 0 0 903.5 237.89;" xml:space="preserve">
<style type="text/css">
	.st0{fill:#020203;}
	.st1{fill:#031111;}
	.st2{fill:none;stroke:#030305;stroke-miterlimit:10;}
	.st3{fill:#936DAC;}
	.st4{fill:#EA9620;}
	.st5{fill:#5E72B5;}
	.st6{fill:#EB668B;}
	.st7{fill:#E5292A;}
	.st8{fill:#53B479;}
	.st9{fill:#1E1E1C;}
	.st10{font-family:'Bitter-Italic';}
	.st11{font-size:40px;}
	.st12{fill:none;stroke:#53B479;stroke-miterlimit:10;}
	.st13{font-family:'Bitter-Regular';}
</style>
<g>
	
		<rect x="263.62" y="205.12" transform="matrix(0.2984 -0.9544 0.9544 0.2984 -7.5068 409.904)" class="st0" width="22.9" height="9.87"/>
	<path class="st0" d="M343.08,4.01c-1.46,0.46-3.75,1.21-6.29,1.78c-3.32,0.74-11.48,1.02-14.42,0.1l-71.51,229.64l7.53,2.36
		l70.35-224.63c0,0,0.67-0.45,2-0.75c2.04-0.46,5.64-0.54,10.73,1.94l1.59-5.07l0.04,0.01l1.54-4.9L343.08,4.01z"/>
</g>
<polygon class="st1" points="86.94,75.11 54.68,75.74 54.68,82.42 65.63,84.45 43.82,149.17 23.66,84.17 34.52,81.79 34.52,75.11 
	0,75.74 0,82.42 9.31,84.38 35.91,163.43 49.52,163.43 77.49,84.07 86.94,81.79 "/>
<g>
	<path class="st1" d="M101.43,83.8c2.27,0,4.18-0.69,5.73-2.08c1.55-1.39,2.33-3.42,2.33-6.11c0-2.69-0.74-4.72-2.21-6.11
		c-1.47-1.39-3.38-2.08-5.73-2.08c-2.27,0-4.16,0.69-5.67,2.08c-1.51,1.39-2.27,3.42-2.27,6.11c0,2.6,0.73,4.62,2.21,6.05
		C97.29,83.09,99.16,83.8,101.43,83.8z"/>
	<polygon class="st1" points="108.36,154.38 108.36,96.15 86.44,96.91 86.44,103.58 95.76,105.72 95.76,154.41 86.44,156.63 
		86.44,163.31 117.81,163.31 117.81,156.63 	"/>
</g>
<path class="st1" d="M179.8,104.02c-5.38-5.84-12.77-8.76-22.18-8.76c-6.72,0-12.45,1.45-17.2,4.35c-4.75,2.9-8.38,7.04-10.9,12.41
	c-2.52,5.38-3.78,11.8-3.78,19.28c0,10.67,2.6,18.88,7.81,24.63c5.21,5.75,12.47,8.63,21.8,8.63c6.8,0,12.62-1.47,17.45-4.41
	c4.83-2.94,8.55-7.1,11.15-12.47c2.6-5.38,3.91-11.67,3.91-18.9C187.87,118.12,185.18,109.86,179.8,104.02z M172.56,143.46
	c-1.39,3.91-3.45,6.87-6.17,8.88c-2.73,2.02-6.15,3.02-10.27,3.02c-5.63,0-9.91-2.04-12.85-6.11c-2.94-4.07-4.41-10.27-4.41-18.58
	c0-8.48,1.53-14.97,4.6-19.47c3.07-4.49,7.58-6.74,13.54-6.74c5.71,0,10.08,2.08,13.1,6.24c3.02,4.16,4.54,10.4,4.54,18.71
	C174.63,134.88,173.94,139.56,172.56,143.46z"/>
<path class="st1" d="M252.38,104.02c-5.38-5.84-12.77-8.76-22.18-8.76c-6.72,0-12.45,1.45-17.2,4.35c-4.75,2.9-8.38,7.04-10.9,12.41
	c-2.52,5.38-3.78,11.8-3.78,19.28c0,10.67,2.6,18.88,7.81,24.63c5.21,5.75,12.47,8.63,21.8,8.63c6.8,0,12.62-1.47,17.45-4.41
	c4.83-2.94,8.55-7.1,11.15-12.47c2.6-5.38,3.91-11.67,3.91-18.9C260.44,118.12,257.75,109.86,252.38,104.02z M245.13,143.46
	c-1.39,3.91-3.45,6.87-6.17,8.88c-2.73,2.02-6.15,3.02-10.27,3.02c-5.63,0-9.91-2.04-12.85-6.11c-2.94-4.07-4.41-10.27-4.41-18.58
	c0-8.48,1.53-14.97,4.6-19.47c3.07-4.49,7.58-6.74,13.54-6.74c5.71,0,10.08,2.08,13.1,6.24c3.02,4.16,4.54,10.4,4.54,18.71
	C247.21,134.88,246.52,139.56,245.13,143.46z"/>
<path class="st1" d="M374.74,104.02c-5.38-5.84-12.77-8.76-22.18-8.76c-6.72,0-12.45,1.45-17.2,4.35c-4.75,2.9-8.38,7.04-10.9,12.41
	c-2.52,5.38-3.78,11.8-3.78,19.28c0,10.67,2.6,18.88,7.81,24.63c5.21,5.75,12.47,8.63,21.8,8.63c6.8,0,12.62-1.47,17.45-4.41
	c4.83-2.94,8.55-7.1,11.15-12.47c2.6-5.38,3.91-11.67,3.91-18.9C382.8,118.12,380.12,109.86,374.74,104.02z M367.5,143.46
	c-1.39,3.91-3.45,6.87-6.17,8.88c-2.73,2.02-6.15,3.02-10.27,3.02c-5.63,0-9.91-2.04-12.85-6.11c-2.94-4.07-4.41-10.27-4.41-18.58
	c0-8.48,1.53-14.97,4.6-19.47c3.07-4.49,7.58-6.74,13.54-6.74c5.71,0,10.08,2.08,13.1,6.24c3.02,4.16,4.54,10.4,4.54,18.71
	C369.57,134.88,368.88,139.56,367.5,143.46z"/>
<path class="st1" d="M457.02,154.44v-38c0.08-7.22-1.72-12.56-5.42-16c-3.7-3.44-8.36-5.17-13.99-5.17c-4.12,0-8.46,1.01-13.04,3.02
	c-4.07,1.79-7.96,4.46-11.67,7.98l-1.37-10.25l-19.15,0.88v6.68l9.32,2.22v48.6l-9.32,2.23v6.68h30.74v-6.68l-8.82-2.07v-40.99
	c2.91-2.76,5.87-4.86,8.88-6.27c3.32-1.55,6.4-2.33,9.26-2.33c3.61,0,6.51,1.13,8.69,3.4c2.18,2.27,3.28,5.84,3.28,10.71v35.42
	l-8.82,2.13v6.68h30.74v-6.68L457.02,154.44z"/>
<path class="st1" d="M531.36,154.25V65.78l-22.55,0.88v6.68l9.95,2.46v20.67c-1.47-0.31-2.93-0.58-4.35-0.76
	c-2.23-0.29-4.39-0.44-6.49-0.44c-10.75,0-19.15,2.98-25.2,8.95c-6.05,5.96-9.07,14.91-9.07,26.84c0,7.23,1.07,13.34,3.21,18.33
	c2.14,5,5.1,8.78,8.88,11.34c3.78,2.56,8.02,3.84,12.73,3.84c3.95,0,7.79-0.9,11.53-2.71c3.36-1.62,6.75-3.99,10.14-7.08l1.51,9.28
	l19.15-0.88v-6.68L531.36,154.25z M503.13,155.12c-3.19,0-6.03-1.01-8.5-3.02c-2.48-2.02-4.41-4.91-5.8-8.69
	c-1.39-3.78-2.08-8.27-2.08-13.48c0-7.98,1.74-14.22,5.23-18.71c3.48-4.49,8.67-6.74,15.56-6.74c3.41,0,7.15,0.56,11.21,1.67v41.89
	c-2.46,2.13-4.87,3.78-7.25,4.95C508.61,154.41,505.82,155.12,503.13,155.12z"/>
<path class="st1" d="M606.83,127.78c0.08-1.09,0.13-2.18,0.13-3.28c0-5.63-0.95-10.65-2.83-15.06s-4.79-7.88-8.69-10.39
	c-3.91-2.52-8.93-3.78-15.06-3.78c-6.38,0-11.95,1.45-16.7,4.35c-4.75,2.9-8.4,7.01-10.96,12.35c-2.56,5.33-3.84,11.7-3.84,19.09
	c0,7.23,1.24,13.34,3.72,18.33c2.48,5,5.92,8.78,10.33,11.34c4.41,2.56,9.51,3.84,15.31,3.84c4.54,0,9.22-0.8,14.05-2.39
	c4.83-1.59,9.6-4.03,14.3-7.31l-4.41-6.93c-3.78,2.35-7.46,4.12-11.02,5.29c-3.57,1.18-6.87,1.76-9.89,1.76
	c-4.28,0-7.88-1.07-10.77-3.21c-2.9-2.14-5.06-5.12-6.49-8.95c-1.23-3.28-1.92-7.04-2.09-11.28h44.56
	C606.62,130.13,606.74,128.87,606.83,127.78z M563.74,116.69c1.26-3.7,3.19-6.62,5.8-8.76c2.6-2.14,5.88-3.21,9.83-3.21
	c3.61,0,6.51,0.86,8.69,2.58c2.18,1.72,3.74,4.01,4.66,6.87c0.85,2.64,1.26,5.55,1.25,8.69h-31.68
	C562.6,120.66,563.08,118.6,563.74,116.69z"/>
<path class="st1" d="M658.87,95.27c-4.2,0-8.13,1.09-11.78,3.28c-3.21,1.92-6.46,4.52-9.77,7.79l-1.38-10.31l-19.15,0.88v6.68
	l9.32,2.25v48.63l-9.32,2.17v6.68h33.64v-6.68l-11.72-2.21v-40.23c2.21-2.38,4.57-4.4,7.12-6.01c2.98-1.89,6.03-2.83,9.13-2.83
	c0.59,0,1.2,0.04,1.83,0.13c0.25,0.03,0.49,0.08,0.73,0.12l1.34,10.96h7.69l0.88-20.03C664.41,95.69,661.55,95.27,658.87,95.27z"/>
<polygon class="st1" points="773.02,96.02 747.19,96.91 747.19,103.58 755.69,105.07 743.29,152.49 728.79,96.02 715.56,96.78 
	700.37,152 688.7,104.52 697.8,102.7 697.8,96.02 669.7,96.91 669.7,103.58 676.87,105.08 692.38,163.56 706.11,163.56 
	721.56,110.36 735.85,163.56 749.58,163.56 766.13,104.52 773.02,102.7 "/>
<g>
	<path class="st1" d="M791.04,83.8c2.27,0,4.18-0.69,5.73-2.08c1.55-1.39,2.33-3.42,2.33-6.11c0-2.69-0.74-4.72-2.21-6.11
		c-1.47-1.39-3.38-2.08-5.73-2.08c-2.27,0-4.16,0.69-5.67,2.08c-1.51,1.39-2.27,3.42-2.27,6.11c0,2.6,0.73,4.62,2.21,6.05
		C786.9,83.09,788.77,83.8,791.04,83.8z"/>
	<polygon class="st1" points="797.97,154.38 797.97,96.15 776.04,96.91 776.04,103.58 785.37,105.72 785.37,154.41 776.04,156.63 
		776.04,163.31 807.42,163.31 807.42,156.63 	"/>
</g>
<g>
	<path class="st1" d="M827.83,83.8c2.27,0,4.18-0.69,5.73-2.08c1.55-1.39,2.33-3.42,2.33-6.11c0-2.69-0.74-4.72-2.21-6.11
		c-1.47-1.39-3.38-2.08-5.73-2.08c-2.27,0-4.16,0.69-5.67,2.08c-1.51,1.39-2.27,3.42-2.27,6.11c0,2.6,0.73,4.62,2.21,6.05
		C823.69,83.09,825.56,83.8,827.83,83.8z"/>
	<path class="st1" d="M813.21,103.58l9.45,2.2v64.2c0,5.12-0.94,8.76-2.83,10.9c-1.89,2.14-5.06,3.21-9.51,3.21
		c-0.67,0-1.41-0.02-2.21-0.06c-0.8-0.04-1.62-0.11-2.46-0.19l-1.01,9.07c1.26,0.17,2.46,0.31,3.59,0.44s2.25,0.19,3.34,0.19
		c3.95,0,7.41-0.57,10.4-1.7c2.98-1.13,5.46-2.82,7.43-5.04c1.97-2.23,3.44-5.06,4.41-8.5c0.96-3.45,1.45-7.52,1.45-12.22V96.15
		l-22.05,0.76V103.58z"/>
</g>
<path class="st1" d="M897.95,134.14c-1.72-2.39-3.93-4.3-6.61-5.73c-2.69-1.43-5.57-2.6-8.63-3.53c-3.07-0.92-5.94-1.85-8.63-2.77
	c-2.69-0.92-4.87-2.08-6.55-3.46c-1.68-1.39-2.52-3.3-2.52-5.73c0-2.77,1.17-4.96,3.53-6.55c2.35-1.59,5.38-2.39,9.07-2.39
	c3.11,0,6.49,0.49,10.12,1.47l1.59,8.61h8.06l0.63-15.25c-3.78-1.18-7.46-2.06-11.03-2.65c-3.57-0.59-6.83-0.88-9.76-0.88
	c-4.28,0-8.32,0.67-12.1,2.02c-3.78,1.34-6.8,3.45-9.07,6.3c-2.27,2.86-3.4,6.51-3.4,10.96c0,3.95,0.84,7.1,2.52,9.45
	c1.68,2.35,3.86,4.24,6.55,5.67c2.69,1.43,5.52,2.6,8.5,3.53c2.98,0.93,5.82,1.85,8.5,2.77c2.69,0.92,4.89,2.12,6.62,3.59
	c1.72,1.47,2.58,3.46,2.58,5.99c0,2.27-0.74,4.18-2.21,5.73c-1.47,1.56-3.36,2.71-5.67,3.46c-2.31,0.76-4.77,1.13-7.37,1.13
	c-1.76,0-3.72-0.15-5.86-0.44c-1.73-0.24-3.33-0.56-4.87-0.94l-1.24-10.72h-7.94l-0.88,17.77c3.61,1.01,7.14,1.76,10.58,2.27
	c3.44,0.5,6.72,0.76,9.83,0.76c5.29,0,10.08-0.82,14.36-2.46c4.28-1.64,7.66-4.01,10.14-7.12c2.48-3.11,3.72-6.93,3.72-11.47
	C900.53,139.66,899.67,136.53,897.95,134.14z"/>
<line class="st2" x1="341.3" y1="13.61" x2="285.17" y2="192.94"/>
<polygon class="st3" points="89.92,72.24 57.66,72.87 57.66,79.55 68.61,81.59 46.8,146.3 26.64,81.3 37.5,78.92 37.5,72.24 
	2.98,72.87 2.98,79.55 12.29,81.51 38.89,160.56 52.49,160.56 80.47,81.2 89.92,78.92 "/>
<g>
	<path class="st4" d="M104.41,80.93c2.27,0,4.18-0.69,5.73-2.08c1.55-1.39,2.33-3.42,2.33-6.11c0-2.69-0.74-4.72-2.21-6.11
		c-1.47-1.39-3.38-2.08-5.73-2.08c-2.27,0-4.16,0.69-5.67,2.08c-1.51,1.39-2.27,3.42-2.27,6.11c0,2.6,0.73,4.62,2.21,6.05
		C100.27,80.22,102.14,80.93,104.41,80.93z"/>
	<polygon class="st4" points="111.34,151.51 111.34,93.28 89.41,94.04 89.41,100.71 98.74,102.85 98.74,151.54 89.41,153.76 
		89.41,160.44 120.79,160.44 120.79,153.76 	"/>
</g>
<path class="st5" d="M182.78,101.16c-5.38-5.84-12.77-8.76-22.18-8.76c-6.72,0-12.45,1.45-17.2,4.35c-4.75,2.9-8.38,7.04-10.9,12.41
	c-2.52,5.38-3.78,11.8-3.78,19.28c0,10.67,2.6,18.88,7.81,24.63c5.21,5.75,12.47,8.63,21.8,8.63c6.8,0,12.62-1.47,17.45-4.41
	c4.83-2.94,8.55-7.1,11.15-12.47c2.6-5.38,3.91-11.67,3.91-18.9C190.84,115.25,188.15,107,182.78,101.16z M175.53,140.59
	c-1.39,3.91-3.45,6.87-6.17,8.88c-2.73,2.02-6.15,3.02-10.27,3.02c-5.63,0-9.91-2.04-12.85-6.11c-2.94-4.07-4.41-10.27-4.41-18.58
	c0-8.48,1.53-14.97,4.6-19.47c3.07-4.49,7.58-6.74,13.54-6.74c5.71,0,10.08,2.08,13.1,6.24c3.02,4.16,4.54,10.4,4.54,18.71
	C177.61,132.01,176.92,136.69,175.53,140.59z"/>
<path class="st6" d="M255.35,101.16c-5.38-5.84-12.77-8.76-22.18-8.76c-6.72,0-12.45,1.45-17.2,4.35c-4.75,2.9-8.38,7.04-10.9,12.41
	c-2.52,5.38-3.78,11.8-3.78,19.28c0,10.67,2.6,18.88,7.81,24.63c5.21,5.75,12.47,8.63,21.8,8.63c6.8,0,12.62-1.47,17.45-4.41
	c4.83-2.94,8.55-7.1,11.15-12.47c2.6-5.38,3.91-11.67,3.91-18.9C263.42,115.25,260.73,107,255.35,101.16z M248.11,140.59
	c-1.39,3.91-3.45,6.87-6.17,8.88c-2.73,2.02-6.15,3.02-10.27,3.02c-5.63,0-9.91-2.04-12.85-6.11c-2.94-4.07-4.41-10.27-4.41-18.58
	c0-8.48,1.53-14.97,4.6-19.47c3.07-4.49,7.58-6.74,13.54-6.74c5.71,0,10.08,2.08,13.1,6.24c3.02,4.16,4.54,10.4,4.54,18.71
	C250.19,132.01,249.49,136.69,248.11,140.59z"/>
<path class="st7" d="M377.72,101.16c-5.38-5.84-12.77-8.76-22.18-8.76c-6.72,0-12.45,1.45-17.2,4.35c-4.75,2.9-8.38,7.04-10.9,12.41
	c-2.52,5.38-3.78,11.8-3.78,19.28c0,10.67,2.6,18.88,7.81,24.63c5.21,5.75,12.47,8.63,21.8,8.63c6.8,0,12.62-1.47,17.45-4.41
	c4.83-2.94,8.55-7.1,11.15-12.47c2.6-5.38,3.91-11.67,3.91-18.9C385.78,115.25,383.09,107,377.72,101.16z M370.47,140.59
	c-1.39,3.91-3.45,6.87-6.17,8.88c-2.73,2.02-6.15,3.02-10.27,3.02c-5.63,0-9.91-2.04-12.85-6.11c-2.94-4.07-4.41-10.27-4.41-18.58
	c0-8.48,1.53-14.97,4.6-19.47c3.07-4.49,7.58-6.74,13.54-6.74c5.71,0,10.08,2.08,13.1,6.24c3.02,4.16,4.54,10.4,4.54,18.71
	C372.55,132.01,371.86,136.69,370.47,140.59z"/>
<path class="st3" d="M459.99,151.57v-38c0.08-7.22-1.72-12.56-5.42-16c-3.7-3.44-8.36-5.17-13.99-5.17c-4.12,0-8.46,1.01-13.04,3.02
	c-4.07,1.79-7.96,4.46-11.67,7.98l-1.37-10.25l-19.15,0.88v6.68l9.32,2.23v48.6l-9.32,2.23v6.68h30.74v-6.68l-8.82-2.07V110.7
	c2.91-2.76,5.87-4.86,8.88-6.27c3.32-1.55,6.4-2.33,9.26-2.33c3.61,0,6.51,1.13,8.69,3.4c2.18,2.27,3.28,5.84,3.28,10.71v35.42
	l-8.82,2.13v6.68h30.74v-6.68L459.99,151.57z"/>
<path class="st4" d="M534.33,151.38V62.91l-22.55,0.88v6.68l9.95,2.46V93.6c-1.47-0.31-2.93-0.58-4.35-0.77
	c-2.23-0.29-4.39-0.44-6.49-0.44c-10.75,0-19.15,2.98-25.2,8.95c-6.05,5.96-9.07,14.91-9.07,26.84c0,7.23,1.07,13.34,3.21,18.33
	c2.14,5,5.1,8.78,8.88,11.34c3.78,2.56,8.02,3.84,12.73,3.84c3.95,0,7.79-0.9,11.53-2.71c3.36-1.62,6.75-3.99,10.14-7.08l1.51,9.28
	l19.15-0.88v-6.68L534.33,151.38z M506.11,152.25c-3.19,0-6.03-1.01-8.5-3.02c-2.48-2.02-4.41-4.91-5.8-8.69
	c-1.39-3.78-2.08-8.27-2.08-13.48c0-7.98,1.74-14.22,5.23-18.71c3.48-4.49,8.67-6.74,15.56-6.74c3.41,0,7.15,0.56,11.21,1.67v41.89
	c-2.46,2.13-4.87,3.78-7.25,4.95C511.59,151.54,508.79,152.25,506.11,152.25z"/>
<path class="st5" d="M609.8,124.91c0.08-1.09,0.13-2.18,0.13-3.28c0-5.63-0.95-10.65-2.83-15.06s-4.79-7.88-8.69-10.39
	c-3.91-2.52-8.93-3.78-15.06-3.78c-6.38,0-11.95,1.45-16.7,4.35c-4.75,2.9-8.4,7.01-10.96,12.35c-2.56,5.33-3.84,11.7-3.84,19.09
	c0,7.23,1.24,13.34,3.72,18.33c2.48,5,5.92,8.78,10.33,11.34c4.41,2.56,9.51,3.84,15.31,3.84c4.54,0,9.22-0.8,14.05-2.39
	c4.83-1.59,9.6-4.03,14.3-7.31l-4.41-6.93c-3.78,2.35-7.46,4.12-11.02,5.29c-3.57,1.18-6.87,1.76-9.89,1.76
	c-4.28,0-7.88-1.07-10.77-3.21c-2.9-2.14-5.06-5.12-6.49-8.95c-1.23-3.28-1.92-7.04-2.09-11.28h44.56
	C609.59,127.26,609.72,126,609.8,124.91z M565.27,119.99c0.31-2.2,0.79-4.26,1.45-6.17c1.26-3.7,3.19-6.62,5.8-8.76
	c2.6-2.14,5.88-3.21,9.83-3.21c3.61,0,6.51,0.86,8.69,2.58c2.18,1.72,3.74,4.01,4.66,6.87c0.85,2.64,1.26,5.55,1.25,8.69H565.27z"/>
<path class="st6" d="M661.84,92.4c-4.2,0-8.13,1.09-11.78,3.28c-3.21,1.92-6.46,4.52-9.77,7.79l-1.38-10.31l-19.15,0.88v6.68
	l9.32,2.25v48.63l-9.32,2.17v6.68h33.64v-6.68l-11.72-2.21v-40.23c2.21-2.38,4.57-4.4,7.12-6.01c2.98-1.89,6.03-2.83,9.13-2.83
	c0.59,0,1.2,0.04,1.83,0.13c0.25,0.03,0.49,0.08,0.73,0.13l1.34,10.96h7.69l0.88-20.03C667.39,92.82,664.53,92.4,661.84,92.4z"/>
<polygon class="st8" points="775.99,93.15 750.16,94.04 750.16,100.71 758.66,102.2 746.27,149.62 731.77,93.15 718.54,93.91 
	703.35,149.14 691.68,101.65 700.77,99.83 700.77,93.15 672.67,94.04 672.67,100.71 679.84,102.21 695.35,160.69 709.09,160.69 
	724.54,107.49 738.82,160.69 752.56,160.69 769.11,101.66 775.99,99.83 "/>
<g>
	<path class="st7" d="M794.01,80.93c2.27,0,4.18-0.69,5.73-2.08c1.55-1.39,2.33-3.42,2.33-6.11c0-2.69-0.74-4.72-2.21-6.11
		c-1.47-1.39-3.38-2.08-5.73-2.08c-2.27,0-4.16,0.69-5.67,2.08c-1.51,1.39-2.27,3.42-2.27,6.11c0,2.6,0.73,4.62,2.21,6.05
		C789.87,80.22,791.74,80.93,794.01,80.93z"/>
	<polygon class="st7" points="800.94,151.51 800.94,93.28 779.02,94.04 779.02,100.71 788.34,102.85 788.34,151.54 779.02,153.76 
		779.02,160.44 810.39,160.44 810.39,153.76 	"/>
</g>
<g>
	<path class="st3" d="M830.8,80.93c2.27,0,4.18-0.69,5.73-2.08c1.55-1.39,2.33-3.42,2.33-6.11c0-2.69-0.74-4.72-2.21-6.11
		c-1.47-1.39-3.38-2.08-5.73-2.08c-2.27,0-4.16,0.69-5.67,2.08c-1.51,1.39-2.27,3.42-2.27,6.11c0,2.6,0.73,4.62,2.21,6.05
		C826.66,80.22,828.53,80.93,830.8,80.93z"/>
	<path class="st3" d="M816.19,100.71l9.45,2.2v64.2c0,5.12-0.94,8.76-2.83,10.9c-1.89,2.14-5.06,3.21-9.51,3.21
		c-0.67,0-1.41-0.02-2.21-0.06c-0.8-0.04-1.62-0.11-2.46-0.19l-1.01,9.07c1.26,0.17,2.46,0.31,3.59,0.44s2.25,0.19,3.34,0.19
		c3.95,0,7.41-0.57,10.4-1.7c2.98-1.13,5.46-2.82,7.43-5.04c1.97-2.23,3.44-5.06,4.41-8.5c0.96-3.45,1.45-7.52,1.45-12.22V93.28
		l-22.05,0.76V100.71z"/>
</g>
<path class="st4" d="M900.92,131.27c-1.72-2.39-3.93-4.3-6.61-5.73c-2.69-1.43-5.57-2.6-8.63-3.53c-3.07-0.92-5.94-1.85-8.63-2.77
	c-2.69-0.92-4.87-2.08-6.55-3.46c-1.68-1.39-2.52-3.3-2.52-5.73c0-2.77,1.17-4.96,3.53-6.55c2.35-1.59,5.38-2.39,9.07-2.39
	c3.11,0,6.49,0.49,10.12,1.47l1.59,8.61h8.06l0.63-15.25c-3.78-1.18-7.46-2.06-11.03-2.65c-3.57-0.59-6.83-0.88-9.76-0.88
	c-4.28,0-8.32,0.67-12.1,2.02c-3.78,1.34-6.8,3.45-9.07,6.3c-2.27,2.86-3.4,6.51-3.4,10.96c0,3.95,0.84,7.1,2.52,9.45
	c1.68,2.35,3.86,4.24,6.55,5.67c2.69,1.43,5.52,2.6,8.5,3.53c2.98,0.93,5.82,1.85,8.5,2.77c2.69,0.92,4.89,2.12,6.62,3.59
	c1.72,1.47,2.58,3.46,2.58,5.99c0,2.27-0.74,4.18-2.21,5.73c-1.47,1.56-3.36,2.71-5.67,3.46c-2.31,0.76-4.77,1.13-7.37,1.13
	c-1.76,0-3.72-0.15-5.86-0.44c-1.73-0.24-3.33-0.56-4.87-0.94l-1.24-10.72h-7.94l-0.88,17.77c3.61,1.01,7.14,1.76,10.58,2.27
	c3.44,0.5,6.72,0.76,9.83,0.76c5.29,0,10.08-0.82,14.36-2.46c4.28-1.64,7.66-4.01,10.14-7.12c2.48-3.11,3.72-6.93,3.72-11.47
	C903.5,136.79,902.64,133.66,900.92,131.27z"/>
<text transform="matrix(1 0 0 1 511.8823 208.0716)" class="st9 st10 st11">op hoog niveau</text>
<g>
	<g>
		<path class="st8" d="M347.27,0c-1.46,0.46-3.75,1.21-6.29,1.78c-3.32,0.74-11.48,1.02-14.42,0.1l-71.51,229.64l7.53,2.36
			L332.92,9.25c0,0,0.67-0.45,2-0.75c2.04-0.46,5.64-0.54,10.73,1.94l1.59-5.07l0.04,0.01l1.54-4.9L347.27,0z"/>
		
			<rect x="267.8" y="201.11" transform="matrix(0.2984 -0.9544 0.9544 0.2984 -0.7445 411.0878)" class="st8" width="22.9" height="9.87"/>
	</g>
	<line class="st12" x1="343.96" y1="9.88" x2="285.7" y2="196.04"/>
</g>
<g>
	<text transform="matrix(1 0 0 1 1.831055e-04 49.3589)" class="st0 st13 st11">Peter de Leeuw</text>
</g>
</svg>
