<?xml version="1.0" encoding="utf-8"?>
<!-- Generator: Adobe Illustrator 26.5.0, SVG Export Plug-In . SVG Version: 6.00 Build 0)  -->
<svg version="1.1" id="Layer_1" xmlns="http://www.w3.org/2000/svg" xmlns:xlink="http://www.w3.org/1999/xlink" x="0px" y="0px"
	 viewBox="0 0 946 239" style="enable-background:new 0 0 946 239;" xml:space="preserve">
<style type="text/css">
	.st0{fill:#FFFFFF;}
	.st1{fill:#EF0A46;}
	.st2{enable-background:new    ;}
	.st3{fill:url(#SVGID_1_);}
	.st4{fill:url(#SVGID_00000023249374045083710230000003196657482901575062_);}
	.st5{fill:url(#SVGID_00000074425439723956721560000017284580861525818509_);}
	.st6{fill:url(#SVGID_00000002380345211057707880000017673783228726155692_);}
	.st7{fill:url(#SVGID_00000114791987957159767020000000308566585130568593_);}
	.st8{fill:url(#SVGID_00000143596749329543915510000006245515506077090743_);}
	.st9{fill:url(#SVGID_00000165212508078055630490000009571328577882496165_);}
	.st10{fill:url(#SVGID_00000004533577698982694240000004555181246600272029_);}
	.st11{fill:url(#SVGID_00000127007624725298713400000013055507864982410666_);}
	.st12{fill:url(#SVGID_00000001627324913667099480000012181318947435434150_);}
	.st13{fill:url(#SVGID_00000067926129230849614240000006189387408919263367_);}
	.st14{fill:url(#SVGID_00000101793912183099082430000005876864633350470543_);}
	.st15{fill:url(#SVGID_00000077289461475471889510000000593495384562335397_);}
</style>
<g>
	<path class="st0" d="M34.2,187.2L7.8,108.7l4.1,3.1l-11.4-3.1v-9l37-0.6v9l-12.2,3.5l2.1-4.4l19.1,64.4H44l20.9-63.4l1.4,3.5
		l-11.4-3v-9l33.4-0.6v9L77,111.5l4.1-3.1l-27.9,78.9h-19V187.2z"/>
	<path class="st0" d="M117.4,176.9l-1.2-1.5l9.6,2.8v9H91.5v-9l9.6-2.8l-1.2,1.5v-45.6l1.1,1.1l-9.5-2.6v-9l25.9-0.9V176.9z
		 M108.1,110.1c-3.1,0-5.6-0.9-7.4-2.6s-2.8-4.2-2.8-7.5c0-3.5,1-6.1,2.9-7.8c2-1.7,4.4-2.6,7.4-2.6c2.9,0,5.3,0.9,7.2,2.6
		c1.9,1.7,2.9,4.3,2.9,7.7c0,3.4-1,6-2.9,7.7C113.5,109.3,111,110.1,108.1,110.1z"/>
	<path class="st0" d="M168.3,118.9c9.8,0,17.5,2.9,23,8.8c5.5,5.8,8.2,14.1,8.2,24.9c0,7.5-1.3,13.9-4,19.3
		c-2.7,5.4-6.5,9.5-11.5,12.4s-11,4.4-18,4.4c-9.8,0-17.4-2.9-22.8-8.8c-5.4-5.8-8.1-14.1-8.1-24.9c0-7.5,1.3-13.9,3.9-19.3
		s6.4-9.5,11.3-12.4C155.3,120.3,161.3,118.9,168.3,118.9z M167.4,131.4c-4.8,0-8.3,1.9-10.6,5.6c-2.3,3.7-3.5,9.4-3.5,17.2
		s1.1,13.4,3.4,16.8c2.2,3.5,5.7,5.2,10.2,5.2c3.3,0,6-0.8,8.1-2.5s3.7-4.2,4.8-7.6c1.1-3.4,1.6-7.6,1.6-12.6
		c0-7.6-1.2-13.1-3.5-16.7C175.5,133.1,172,131.4,167.4,131.4z"/>
	<path class="st0" d="M244,118.9c9.8,0,17.5,2.9,23,8.8c5.5,5.8,8.2,14.1,8.2,24.9c0,7.5-1.3,13.9-4,19.3
		c-2.7,5.4-6.5,9.5-11.5,12.4s-11,4.4-18,4.4c-9.8,0-17.4-2.9-22.8-8.8c-5.4-5.8-8.1-14.1-8.1-24.9c0-7.5,1.3-13.9,3.9-19.3
		s6.4-9.5,11.3-12.4C231,120.3,237,118.9,244,118.9z M243.1,131.4c-4.8,0-8.3,1.9-10.6,5.6c-2.3,3.7-3.5,9.4-3.5,17.2
		s1.1,13.4,3.4,16.8c2.2,3.5,5.7,5.2,10.2,5.2c3.3,0,6-0.8,8.1-2.5s3.7-4.2,4.8-7.6c1.1-3.4,1.6-7.6,1.6-12.6
		c0-7.6-1.2-13.1-3.5-16.7C251.3,133.1,247.8,131.4,243.1,131.4z"/>
	<path class="st0" d="M353.5,118.9c9.8,0,17.5,2.9,23,8.8c5.5,5.8,8.2,14.1,8.2,24.9c0,7.5-1.3,13.9-4,19.3
		c-2.7,5.4-6.5,9.5-11.5,12.4s-11,4.4-18,4.4c-9.8,0-17.4-2.9-22.8-8.8c-5.4-5.8-8.1-14.1-8.1-24.9c0-7.5,1.3-13.9,3.9-19.3
		s6.4-9.5,11.3-12.4C340.5,120.3,346.5,118.9,353.5,118.9z M352.6,131.4c-4.8,0-8.3,1.9-10.6,5.6c-2.3,3.7-3.5,9.4-3.5,17.2
		s1.1,13.4,3.4,16.8c2.2,3.5,5.7,5.2,10.2,5.2c3.3,0,6-0.8,8.1-2.5s3.7-4.2,4.8-7.6c1.1-3.4,1.6-7.6,1.6-12.6
		c0-7.6-1.2-13.1-3.5-16.7C360.8,133.1,357.3,131.4,352.6,131.4z"/>
	<path class="st0" d="M395.9,187.1v-9l10.5-3l-2.1,2.5V130l2.1,2.9l-10.5-3.1v-9l22-1l2.2,12l-2.2-0.9c4-4.1,8.2-7.1,12.8-9.1
		c4.5-2,8.8-2.9,12.9-2.9c5.7,0,10.4,1.8,14.1,5.3c3.8,3.5,5.6,8.9,5.5,16.1v37.4l-1.6-2.5l10,3v9h-33.4v-9l9.5-2.8l-2,2.6v-34
		c0-4.1-0.9-7.1-2.7-9c-1.8-1.9-4.1-2.9-7.1-2.9c-2.2,0-4.7,0.6-7.4,1.9c-2.7,1.2-5.3,3.1-7.9,5.6l1.1-2.6v41l-1.6-2.6l9.1,2.8v9
		h-33.3V187.1z"/>
	<path class="st0" d="M505.1,188.6c-4.8,0-9.1-1.3-12.8-3.8c-3.7-2.5-6.6-6.3-8.8-11.3s-3.2-11.1-3.2-18.2c0-12.3,3.1-21.5,9.4-27.4
		c6.2-6,15-8.9,26.4-8.9c1.8,0,3.7,0.1,5.5,0.2c1.8,0.2,3.8,0.5,5.8,0.9l-3.2,2v-20.6l1.2,1.8l-10.2-3.4V91l26.5-1v87.5l-2.1-2.5
		l10.5,3.2v8.9l-22,1l-2.2-10.8l1.8,0.6c-3.7,3.6-7.3,6.3-10.9,8.1S509.1,188.6,505.1,188.6z M511.9,175.7c2.2,0,4.5-0.6,6.9-1.8
		c2.4-1.2,4.9-3,7.5-5.3l-2.1,5.2V129l2.1,4c-3.9-1.1-7.5-1.6-10.6-1.6c-5.9,0-10.2,2-12.9,5.9c-2.7,4-4.1,9.4-4.1,16.3
		c0,4.5,0.5,8.4,1.6,11.8c1.1,3.3,2.6,5.9,4.6,7.7C506.8,174.8,509.1,175.7,511.9,175.7z"/>
	<path class="st0" d="M589.9,188.6c-6.1,0-11.4-1.3-15.9-3.8s-8.1-6.3-10.7-11.3c-2.6-5-3.9-11.2-3.9-18.5c0-7.5,1.4-14,4.1-19.4
		c2.7-5.4,6.5-9.6,11.4-12.4c4.9-2.9,10.7-4.3,17.4-4.3c6.5,0,11.8,1.3,15.9,3.9c4.1,2.6,7.1,6.1,9,10.6s2.9,9.5,2.9,15.1
		c0,1.4-0.1,2.8-0.2,4.2s-0.3,2.9-0.6,4.6h-45.8v-10.4h30.8l-2.2,1.6c0.1-3.3-0.2-6.3-0.9-8.8s-1.8-4.5-3.5-5.9s-4-2.1-6.9-2.1
		c-3.2,0-5.8,0.9-7.8,2.8s-3.4,4.4-4.2,7.6c-0.8,3.2-1.2,6.7-1.2,10.5c0,4.5,0.5,8.5,1.6,12c1,3.5,2.8,6.2,5.3,8.2s5.8,3,9.8,3
		c2.7,0,5.7-0.5,9-1.6c3.3-1,6.8-2.6,10.2-4.7l6,9.4c-4.9,3.3-9.9,5.8-14.9,7.4S594.6,188.6,589.9,188.6z"/>
	<path class="st0" d="M631.4,187.1v-9l10.1-2.9l-1.8,2.6v-48l2,3l-10.4-3.1v-9l22-1l2.2,11.9l-2.2-0.5c3.8-3.9,7.5-6.9,11.1-9.1
		c3.7-2.1,7.6-3.2,11.8-3.2c2.7,0,5.5,0.4,8.5,1.2l-1.1,23.1h-10.1l-1.9-13.5l1.6,3.4c-0.5-0.2-1-0.3-1.6-0.4
		c-0.5-0.1-1.1-0.1-1.6-0.1c-2.6,0-5.1,0.8-7.7,2.4c-2.5,1.6-4.7,3.6-6.6,6.1l1.4-4.8v41.5l-2-2.6l12.4,2.9v9h-36.1V187.1z"/>
	<path class="st0" d="M769.6,120.9l26.6-1v8.9l-7.8,2.5l2.2-1.9l-15.9,58H756l-13.5-53.8l3.4,0.1l-15.2,53.6h-18.9L697,130.1
		l1.9,1.6l-7.6-1.9v-9l29.5-1v8.9l-9.1,2.5l1.9-1.4l10.5,47h-2.9l14.9-56.1l17.9-1l13.8,57.8H765l11.5-47.2l1.6,1.6l-8.5-2V120.9z"
		/>
	<path class="st0" d="M828.5,176.9l-1.2-1.5l9.6,2.8v9h-34.2v-9l9.6-2.8l-1.2,1.5v-45.6l1.1,1.1l-9.5-2.6v-9l25.9-0.9L828.5,176.9
		L828.5,176.9z M819.2,110.1c-3.1,0-5.6-0.9-7.4-2.6s-2.8-4.2-2.8-7.5c0-3.5,1-6.1,2.9-7.8c2-1.7,4.4-2.6,7.4-2.6
		c2.9,0,5.3,0.9,7.2,2.6s2.9,4.3,2.9,7.7c0,3.4-1,6-2.9,7.7C824.6,109.3,822.2,110.1,819.2,110.1z"/>
	<path class="st0" d="M844.1,217.4c-1.3,0-2.7-0.1-4-0.2c-1.3-0.2-2.8-0.4-4.2-0.6l1.2-12.4c0.9,0.1,1.8,0.2,2.6,0.2
		c0.8,0.1,1.6,0.1,2.4,0.1c4.1,0,7-0.9,8.8-2.8c1.8-1.8,2.7-5,2.7-9.5v-61.6l1.6,2l-10-2.9v-9l25.9-0.9V187c0,5.5-0.6,10.2-1.9,14
		c-1.3,3.8-3.1,7-5.4,9.4c-2.3,2.4-5.2,4.2-8.5,5.3C851.9,216.8,848.2,217.4,844.1,217.4z M861.2,110.1c-3.1,0-5.6-0.9-7.4-2.6
		s-2.8-4.2-2.8-7.5c0-3.5,1-6.1,2.9-7.8c2-1.7,4.4-2.6,7.4-2.6c2.9,0,5.3,0.9,7.2,2.6s2.9,4.3,2.9,7.7c0,3.4-1,6-2.9,7.7
		C866.6,109.3,864.2,110.1,861.2,110.1z"/>
	<path class="st0" d="M906,137.2c0,2,0.9,3.6,2.6,4.7c1.7,1.1,3.9,2.1,6.5,2.9c2.6,0.8,5.4,1.7,8.4,2.7s5.8,2.1,8.4,3.6
		c2.6,1.4,4.8,3.3,6.4,5.8c1.7,2.4,2.5,5.5,2.5,9.4c0,5-1.3,9.1-4,12.4c-2.7,3.3-6.3,5.8-10.9,7.4c-4.6,1.7-9.7,2.5-15.4,2.5
		c-3.4,0-7-0.3-10.8-0.9c-3.8-0.6-7.6-1.4-11.5-2.4l0.9-18.9h11l1.4,11l-1.5-2.1c1.7,0.5,3.5,0.9,5.5,1.2s3.8,0.4,5.4,0.4
		c2.1,0,4.1-0.3,5.9-0.9c1.9-0.6,3.4-1.4,4.6-2.5c1.2-1.1,1.8-2.5,1.8-4.2c0-2.1-0.8-3.7-2.4-4.9c-1.6-1.2-3.8-2.2-6.4-3.1
		s-5.4-1.8-8.3-2.6c-2.9-0.9-5.7-2.1-8.3-3.6s-4.8-3.5-6.4-5.9c-1.7-2.5-2.5-5.7-2.5-9.8c0-4.8,1.2-8.8,3.6-11.8
		c2.4-3,5.6-5.3,9.7-6.7c4-1.4,8.5-2.1,13.3-2.1c3.4,0,7,0.3,10.9,0.9c3.8,0.6,7.8,1.5,11.9,2.6l-0.9,16.9h-10.9l-2.1-9.9l2.4,2.5
		c-3.9-0.9-7.4-1.4-10.5-1.4c-3,0-5.5,0.6-7.4,1.8C906.9,133.4,906,135.1,906,137.2z"/>
</g>
<g>
	<path class="st0" d="M34.2,187.6L7.8,109.1l4.1,3.1l-11.4-3.1v-9l37-0.6v9L25.2,112l2.1-4.4L46.5,172H44l20.9-63.4l1.4,3.5l-11.4-3
		v-9l33.4-0.6v9L77,111.9l4.1-3.1l-27.9,78.9h-19V187.6z"/>
	<path class="st0" d="M117.4,177.2l-1.2-1.5l9.6,2.8v9H91.5v-9l9.6-2.8l-1.2,1.5v-45.6l1.1,1.1l-9.5-2.6v-9l25.9-0.9V177.2z
		 M108.1,110.5c-3.1,0-5.6-0.9-7.4-2.6s-2.8-4.2-2.8-7.5c0-3.5,1-6.1,2.9-7.8c2-1.7,4.4-2.6,7.4-2.6c2.9,0,5.3,0.9,7.2,2.6
		c1.9,1.7,2.9,4.3,2.9,7.7c0,3.4-1,6-2.9,7.7C113.5,109.6,111,110.5,108.1,110.5z"/>
	<path class="st0" d="M168.3,119.2c9.8,0,17.5,2.9,23,8.8c5.5,5.8,8.2,14.1,8.2,24.9c0,7.5-1.3,13.9-4,19.3
		c-2.7,5.4-6.5,9.5-11.5,12.4s-11,4.4-18,4.4c-9.8,0-17.4-2.9-22.8-8.8c-5.4-5.8-8.1-14.1-8.1-24.9c0-7.5,1.3-13.9,3.9-19.3
		s6.4-9.5,11.3-12.4C155.3,120.7,161.3,119.2,168.3,119.2z M167.4,131.8c-4.8,0-8.3,1.9-10.6,5.6c-2.3,3.7-3.5,9.4-3.5,17.2
		s1.1,13.4,3.4,16.8c2.2,3.5,5.7,5.2,10.2,5.2c3.3,0,6-0.8,8.1-2.5s3.7-4.2,4.8-7.6c1.1-3.4,1.6-7.6,1.6-12.6
		c0-7.6-1.2-13.1-3.5-16.7C175.5,133.5,172,131.8,167.4,131.8z"/>
	<path class="st0" d="M244,119.2c9.8,0,17.5,2.9,23,8.8c5.5,5.8,8.2,14.1,8.2,24.9c0,7.5-1.3,13.9-4,19.3
		c-2.7,5.4-6.5,9.5-11.5,12.4s-11,4.4-18,4.4c-9.8,0-17.4-2.9-22.8-8.8c-5.4-5.8-8.1-14.1-8.1-24.9c0-7.5,1.3-13.9,3.9-19.3
		s6.4-9.5,11.3-12.4C231,120.7,237,119.2,244,119.2z M243.1,131.8c-4.8,0-8.3,1.9-10.6,5.6c-2.3,3.7-3.5,9.4-3.5,17.2
		s1.1,13.4,3.4,16.8c2.2,3.5,5.7,5.2,10.2,5.2c3.3,0,6-0.8,8.1-2.5s3.7-4.2,4.8-7.6c1.1-3.4,1.6-7.6,1.6-12.6
		c0-7.6-1.2-13.1-3.5-16.7C251.3,133.5,247.8,131.8,243.1,131.8z"/>
	<path class="st0" d="M353.5,119.2c9.8,0,17.5,2.9,23,8.8c5.5,5.8,8.2,14.1,8.2,24.9c0,7.5-1.3,13.9-4,19.3
		c-2.7,5.4-6.5,9.5-11.5,12.4s-11,4.4-18,4.4c-9.8,0-17.4-2.9-22.8-8.8c-5.4-5.8-8.1-14.1-8.1-24.9c0-7.5,1.3-13.9,3.9-19.3
		s6.4-9.5,11.3-12.4C340.5,120.7,346.5,119.2,353.5,119.2z M352.6,131.8c-4.8,0-8.3,1.9-10.6,5.6c-2.3,3.7-3.5,9.4-3.5,17.2
		s1.1,13.4,3.4,16.8c2.2,3.5,5.7,5.2,10.2,5.2c3.3,0,6-0.8,8.1-2.5s3.7-4.2,4.8-7.6c1.1-3.4,1.6-7.6,1.6-12.6
		c0-7.6-1.2-13.1-3.5-16.7C360.8,133.5,357.3,131.8,352.6,131.8z"/>
	<path class="st0" d="M395.9,187.5v-9l10.5-3l-2.1,2.5v-47.6l2.1,2.9l-10.5-3.1v-9l22-1l2.2,12l-2.2-0.9c4-4.1,8.2-7.1,12.8-9.1
		c4.5-2,8.8-2.9,12.9-2.9c5.7,0,10.4,1.8,14.1,5.3c3.8,3.5,5.6,8.9,5.5,16.1V178l-1.6-2.5l10,3v9h-33.4v-9l9.5-2.8l-2,2.6v-34
		c0-4.1-0.9-7.1-2.7-9c-1.8-1.9-4.1-2.9-7.1-2.9c-2.2,0-4.7,0.6-7.4,1.9c-2.7,1.2-5.3,3.1-7.9,5.6l1.1-2.6v41l-1.6-2.6l9.1,2.8v9
		H395.9z"/>
	<path class="st0" d="M505.1,189c-4.8,0-9.1-1.3-12.8-3.8c-3.7-2.5-6.6-6.3-8.8-11.3s-3.2-11.1-3.2-18.2c0-12.3,3.1-21.5,9.4-27.4
		c6.2-6,15-8.9,26.4-8.9c1.8,0,3.7,0.1,5.5,0.2c1.8,0.2,3.8,0.5,5.8,0.9l-3.2,2v-20.6l1.2,1.8l-10.2-3.4v-8.9l26.5-1v87.5l-2.1-2.5
		l10.5,3.2v8.9l-22,1l-2.2-10.8l1.8,0.6c-3.7,3.6-7.3,6.3-10.9,8.1S509.1,189,505.1,189z M511.9,176.1c2.2,0,4.5-0.6,6.9-1.8
		c2.4-1.2,4.9-3,7.5-5.3l-2.1,5.2v-44.9l2.1,4c-3.9-1.1-7.5-1.6-10.6-1.6c-5.9,0-10.2,2-12.9,5.9c-2.7,4-4.1,9.4-4.1,16.3
		c0,4.5,0.5,8.4,1.6,11.8c1.1,3.3,2.6,5.9,4.6,7.7C506.8,175.2,509.1,176.1,511.9,176.1z"/>
	<path class="st0" d="M589.9,189c-6.1,0-11.4-1.3-15.9-3.8s-8.1-6.3-10.7-11.3c-2.6-5-3.9-11.2-3.9-18.5c0-7.5,1.4-14,4.1-19.4
		c2.7-5.4,6.5-9.6,11.4-12.4c4.9-2.9,10.7-4.3,17.4-4.3c6.5,0,11.8,1.3,15.9,3.9c4.1,2.6,7.1,6.1,9,10.6s2.9,9.5,2.9,15.1
		c0,1.4-0.1,2.8-0.2,4.2s-0.3,2.9-0.6,4.6h-45.8v-10.4h30.8l-2.2,1.6c0.1-3.3-0.2-6.3-0.9-8.8s-1.8-4.5-3.5-5.9s-4-2.1-6.9-2.1
		c-3.2,0-5.8,0.9-7.8,2.8s-3.4,4.4-4.2,7.6c-0.8,3.2-1.2,6.7-1.2,10.5c0,4.5,0.5,8.5,1.6,12c1,3.5,2.8,6.2,5.3,8.2s5.8,3,9.8,3
		c2.7,0,5.7-0.5,9-1.6c3.3-1,6.8-2.6,10.2-4.7l6,9.4c-4.9,3.3-9.9,5.8-14.9,7.4S594.6,189,589.9,189z"/>
	<path class="st0" d="M631.4,187.5v-9l10.1-2.9l-1.8,2.6v-48l2,3l-10.4-3.1v-9l22-1l2.2,11.9l-2.2-0.5c3.8-3.9,7.5-6.9,11.1-9.1
		c3.7-2.1,7.6-3.2,11.8-3.2c2.7,0,5.5,0.4,8.5,1.2l-1.1,23.1h-10.1l-1.9-13.5l1.6,3.4c-0.5-0.2-1-0.3-1.6-0.4
		c-0.5-0.1-1.1-0.1-1.6-0.1c-2.6,0-5.1,0.8-7.7,2.4c-2.5,1.6-4.7,3.6-6.6,6.1l1.4-4.8v41.5l-2-2.6l12.4,2.9v9h-36.1V187.5z"/>
	<path class="st0" d="M769.6,121.2l26.6-1v8.9l-7.8,2.5l2.2-1.9l-15.9,58H756L742.5,134l3.4,0.1l-15.2,53.6h-18.9L697,130.5l1.9,1.6
		l-7.6-1.9v-9l29.5-1v8.9l-9.1,2.5l1.9-1.4l10.5,47h-2.9l14.9-56.1l17.9-1l13.8,57.8H765l11.5-47.2l1.6,1.6l-8.5-2V121.2z"/>
	<path class="st0" d="M828.5,177.2l-1.2-1.5l9.6,2.8v9h-34.2v-9l9.6-2.8l-1.2,1.5v-45.6l1.1,1.1l-9.5-2.6v-9l25.9-0.9L828.5,177.2
		L828.5,177.2z M819.2,110.5c-3.1,0-5.6-0.9-7.4-2.6s-2.8-4.2-2.8-7.5c0-3.5,1-6.1,2.9-7.8c2-1.7,4.4-2.6,7.4-2.6
		c2.9,0,5.3,0.9,7.2,2.6s2.9,4.3,2.9,7.7c0,3.4-1,6-2.9,7.7C824.6,109.6,822.2,110.5,819.2,110.5z"/>
	<path class="st0" d="M844.1,217.8c-1.3,0-2.7-0.1-4-0.2c-1.3-0.2-2.8-0.4-4.2-0.6l1.2-12.4c0.9,0.1,1.8,0.2,2.6,0.2
		c0.8,0.1,1.6,0.1,2.4,0.1c4.1,0,7-0.9,8.8-2.8c1.8-1.8,2.7-5,2.7-9.5V131l1.6,2l-10-2.9v-9l25.9-0.9v67.1c0,5.5-0.6,10.2-1.9,14
		c-1.3,3.8-3.1,7-5.4,9.4c-2.3,2.4-5.2,4.2-8.5,5.3C851.9,217.2,848.2,217.8,844.1,217.8z M861.2,110.5c-3.1,0-5.6-0.9-7.4-2.6
		s-2.8-4.2-2.8-7.5c0-3.5,1-6.1,2.9-7.8c2-1.7,4.4-2.6,7.4-2.6c2.9,0,5.3,0.9,7.2,2.6s2.9,4.3,2.9,7.7c0,3.4-1,6-2.9,7.7
		C866.6,109.6,864.2,110.5,861.2,110.5z"/>
	<path class="st0" d="M906,137.6c0,2,0.9,3.6,2.6,4.7c1.7,1.1,3.9,2.1,6.5,2.9c2.6,0.8,5.4,1.7,8.4,2.7s5.8,2.1,8.4,3.6
		c2.6,1.4,4.8,3.3,6.4,5.8c1.7,2.4,2.5,5.5,2.5,9.4c0,5-1.3,9.1-4,12.4c-2.7,3.3-6.3,5.8-10.9,7.4c-4.6,1.7-9.7,2.5-15.4,2.5
		c-3.4,0-7-0.3-10.8-0.9c-3.8-0.6-7.6-1.4-11.5-2.4l0.9-18.9h11l1.4,11l-1.5-2.1c1.7,0.5,3.5,0.9,5.5,1.2s3.8,0.4,5.4,0.4
		c2.1,0,4.1-0.3,5.9-0.9c1.9-0.6,3.4-1.4,4.6-2.5c1.2-1.1,1.8-2.5,1.8-4.2c0-2.1-0.8-3.7-2.4-4.9c-1.6-1.2-3.8-2.2-6.4-3.1
		s-5.4-1.8-8.3-2.6c-2.9-0.9-5.7-2.1-8.3-3.6s-4.8-3.5-6.4-5.9c-1.7-2.5-2.5-5.7-2.5-9.8c0-4.8,1.2-8.8,3.6-11.8
		c2.4-3,5.6-5.3,9.7-6.7c4-1.4,8.5-2.1,13.3-2.1c3.4,0,7,0.3,10.9,0.9c3.8,0.6,7.8,1.5,11.9,2.6l-0.9,16.9h-10.9l-2.1-9.9l2.4,2.5
		c-3.9-0.9-7.4-1.4-10.5-1.4c-3,0-5.5,0.6-7.4,1.8C906.9,133.8,906,135.5,906,137.6z"/>
</g>
<g>
	<path class="st1" d="M567.9,204.3c1,0,2,0.2,2.7,0.6c0.8,0.4,1.4,1.1,1.8,1.9c0.4,0.9,0.7,2,0.7,3.5c0,1.1-0.2,2.3-0.5,3.4
		c-0.3,1.1-0.8,2.1-1.5,3c-0.6,0.9-1.5,1.6-2.4,2.1c-1,0.5-2.1,0.8-3.4,0.8c-1,0-1.9-0.2-2.7-0.6c-0.8-0.4-1.4-1.1-1.8-1.9
		s-0.7-2-0.7-3.5c0-1.2,0.2-2.3,0.5-3.4c0.3-1.1,0.8-2.1,1.4-3c0.6-0.9,1.5-1.6,2.4-2.1C565.5,204.6,566.6,204.3,567.9,204.3z
		 M567.6,206c-0.9,0-1.7,0.2-2.3,0.7c-0.7,0.5-1.2,1.1-1.6,1.8c-0.4,0.7-0.7,1.6-1,2.5c-0.2,0.9-0.3,1.8-0.3,2.6
		c0,1.4,0.3,2.5,0.8,3.2c0.6,0.8,1.4,1.1,2.5,1.1c0.9,0,1.6-0.2,2.3-0.7s1.2-1.1,1.7-1.8c0.4-0.8,0.8-1.6,1-2.5s0.3-1.8,0.3-2.6
		c0-1.4-0.3-2.5-0.8-3.2C569.6,206.4,568.8,206,567.6,206z"/>
	<path class="st1" d="M578.6,225.8l0.2-1.2l3.2-0.8l-1.1,1.2l3-19.1l0.3,0.5l-2.5-0.5l0.2-1.2l4.3-0.2l-1,5.7l-0.6,0.9
		c0.4-1.5,1-2.8,1.8-3.8c0.7-1,1.6-1.7,2.5-2.2s1.7-0.7,2.5-0.7c0.7,0,1.4,0.2,1.9,0.6c0.6,0.4,1.1,1,1.4,1.8
		c0.4,0.8,0.5,1.9,0.5,3.2c0,1.8-0.3,3.4-0.9,4.7s-1.5,2.5-2.6,3.3s-2.5,1.4-4,1.6c-1.5,0.2-3.2,0.1-5.1-0.4l1.3-0.2l-1,6.2
		l-0.8-1.3l3.3,0.8l-0.2,1.2h-6.6V225.8z M584.2,218.1l-0.5-0.8c1.4,0.5,2.7,0.6,3.9,0.5c1.1-0.2,2.1-0.6,3-1.2
		c0.8-0.7,1.5-1.6,1.9-2.7c0.4-1.1,0.7-2.4,0.7-3.8c0-1.4-0.2-2.4-0.7-3s-1.1-0.9-1.8-0.9c-0.5,0-1,0.2-1.6,0.5s-1.1,0.8-1.7,1.4
		c-0.6,0.6-1,1.4-1.5,2.3s-0.7,2.1-0.9,3.3L584.2,218.1z"/>
	<path class="st1" d="M623.5,219.4l1.6-9.8c0.1-0.8,0.1-1.4,0-2s-0.4-0.9-0.7-1.2s-0.7-0.4-1.2-0.4s-1.1,0.1-1.7,0.4
		c-0.6,0.3-1.1,0.7-1.7,1.3c-0.5,0.6-1,1.4-1.4,2.3s-0.7,2.1-1,3.3l-0.9,5.8h-2.2l3.2-20.2l0.3,0.5l-2.5-0.5l0.2-1.2l4.4-0.2
		l-2.1,12.2l-0.8,1.1c0.5-1.6,1.1-2.9,1.9-3.9c0.8-1,1.6-1.7,2.5-2.1c0.9-0.4,1.7-0.7,2.5-0.7s1.5,0.2,2,0.6
		c0.5,0.4,0.9,0.9,1.2,1.7s0.3,1.6,0.1,2.7L626,218l-0.9-0.7l3.1,0.8l-0.2,1.3L623.5,219.4z"/>
	<path class="st1" d="M644.3,204.3c1,0,2,0.2,2.7,0.6c0.8,0.4,1.4,1.1,1.8,1.9s0.7,2,0.7,3.5c0,1.1-0.2,2.3-0.5,3.4
		c-0.3,1.1-0.8,2.1-1.5,3c-0.6,0.9-1.5,1.6-2.4,2.1c-1,0.5-2.1,0.8-3.4,0.8c-1,0-1.9-0.2-2.7-0.6c-0.8-0.4-1.4-1.1-1.8-1.9
		s-0.7-2-0.7-3.5c0-1.2,0.2-2.3,0.5-3.4c0.3-1.1,0.8-2.1,1.4-3c0.6-0.9,1.5-1.6,2.4-2.1C641.8,204.6,643,204.3,644.3,204.3z
		 M644,206c-0.9,0-1.7,0.2-2.3,0.7c-0.7,0.5-1.2,1.1-1.6,1.8c-0.4,0.7-0.7,1.6-1,2.5c-0.2,0.9-0.3,1.8-0.3,2.6
		c0,1.4,0.3,2.5,0.8,3.2c0.6,0.8,1.4,1.1,2.5,1.1c0.9,0,1.6-0.2,2.3-0.7s1.2-1.1,1.7-1.8s0.8-1.6,1-2.5s0.3-1.8,0.3-2.6
		c0-1.4-0.3-2.5-0.8-3.2C645.9,206.4,645.1,206,644,206z"/>
	<path class="st1" d="M665.7,204.3c1,0,2,0.2,2.7,0.6c0.8,0.4,1.4,1.1,1.8,1.9s0.7,2,0.7,3.5c0,1.1-0.2,2.3-0.5,3.4
		c-0.3,1.1-0.8,2.1-1.5,3c-0.6,0.9-1.5,1.6-2.4,2.1c-1,0.5-2.1,0.8-3.4,0.8c-1,0-1.9-0.2-2.7-0.6c-0.8-0.4-1.4-1.1-1.8-1.9
		s-0.7-2-0.7-3.5c0-1.2,0.2-2.3,0.5-3.4c0.3-1.1,0.8-2.1,1.4-3c0.6-0.9,1.5-1.6,2.4-2.1C663.3,204.6,664.4,204.3,665.7,204.3z
		 M665.4,206c-0.9,0-1.7,0.2-2.3,0.7c-0.7,0.5-1.2,1.1-1.6,1.8c-0.4,0.7-0.7,1.6-1,2.5c-0.2,0.9-0.3,1.8-0.3,2.6
		c0,1.4,0.3,2.5,0.8,3.2c0.6,0.8,1.4,1.1,2.5,1.1c0.9,0,1.6-0.2,2.3-0.7s1.2-1.1,1.7-1.8s0.8-1.6,1-2.5s0.3-1.8,0.3-2.6
		c0-1.4-0.3-2.5-0.8-3.2C667.4,206.4,666.6,206,665.4,206z"/>
	<path class="st1" d="M683.5,226c-0.8,0-1.6-0.1-2.4-0.3c-0.8-0.2-1.7-0.4-2.5-0.6l0.5-1.7c0.8,0.3,1.6,0.5,2.3,0.6
		c0.8,0.1,1.4,0.2,2.1,0.2c0.8,0,1.5-0.1,2.1-0.3s1-0.5,1.4-1c0.4-0.4,0.7-0.9,0.9-1.5s0.4-1.2,0.5-1.8l0.9-5.9l0.7-1
		c-0.4,1.5-1,2.8-1.8,3.8s-1.6,1.7-2.5,2.2s-1.7,0.7-2.5,0.7c-0.7,0-1.4-0.2-2-0.6c-0.6-0.4-1.1-1-1.4-1.8c-0.4-0.8-0.5-1.8-0.5-3.1
		s0.2-2.6,0.6-3.8c0.4-1.2,1-2.2,1.7-3.1s1.6-1.6,2.6-2.1s2.1-0.8,3.2-0.8c0.7,0,1.4,0.1,2.2,0.3s1.5,0.6,2.3,1.1l-1-0.2l0.5-1h1.2
		l-2.4,15.1c-0.2,1.2-0.5,2.1-0.9,3c-0.4,0.8-0.9,1.5-1.5,2s-1.3,0.9-2,1.1C685.2,225.9,684.4,226,683.5,226z M684,217.8
		c0.5,0,1-0.2,1.6-0.5s1.1-0.8,1.7-1.4s1-1.4,1.4-2.3s0.7-2,0.9-3.3l0.6-4l0.4,0.8c-0.6-0.4-1.1-0.6-1.7-0.8
		c-0.6-0.2-1.1-0.3-1.6-0.3c-0.9,0-1.6,0.2-2.4,0.6s-1.3,1-1.9,1.7c-0.5,0.7-0.9,1.6-1.2,2.5s-0.4,2-0.4,3c0,1.4,0.2,2.4,0.7,3
		C682.7,217.5,683.3,217.8,684,217.8z"/>
	<path class="st1" d="M721.6,219.4l1.6-9.8c0.1-0.8,0.1-1.4,0-2c-0.1-0.5-0.3-0.9-0.7-1.2c-0.3-0.3-0.7-0.4-1.2-0.4s-1,0.1-1.6,0.4
		c-0.6,0.3-1.1,0.7-1.7,1.3c-0.6,0.6-1,1.4-1.4,2.3s-0.7,2.1-0.9,3.3l-0.9,5.8h-2.2l2.2-14.1l0.8,1.3l-3.1-0.8l0.2-1.2l4.3-0.2
		l-1,5.5l-0.7,1.1c0.5-1.6,1.1-2.9,1.9-3.9c0.8-1,1.6-1.7,2.5-2.1c0.9-0.4,1.7-0.7,2.5-0.7s1.5,0.2,2,0.6c0.6,0.4,1,0.9,1.2,1.7
		c0.2,0.7,0.3,1.6,0.1,2.7l-1.4,8.8l-0.9-0.8l3.1,0.8l-0.2,1.3L721.6,219.4z"/>
	<path class="st1" d="M735,219.4l2.2-14.2l0.8,1.3l-3.1-0.8l0.2-1.2l4.4-0.2l-2.2,14.2l-0.7-1.3l3,0.8l-0.2,1.2L735,219.4z
		 M739,201.5c-0.4,0-0.7-0.1-1-0.4c-0.2-0.3-0.3-0.6-0.3-1c0-0.5,0.2-0.9,0.5-1.2s0.7-0.5,1.2-0.5c0.4,0,0.7,0.1,1,0.4
		c0.2,0.2,0.3,0.6,0.3,1c0,0.5-0.2,0.9-0.5,1.2C739.8,201.3,739.4,201.5,739,201.5z"/>
	<path class="st1" d="M751.4,219.4l-2.8-13.5l0.3,0.3l-1.7-0.3l0.2-1.2l3.3-0.2L753,218l-0.5-0.1l5.8-12l0.1,0.3l-2-0.3l0.2-1.2
		l5.2-0.2l-0.2,1.2l-1.8,0.5l0.5-0.3l-6.8,13.5H751.4z"/>
	<path class="st1" d="M772.1,219.6c-1,0-1.9-0.2-2.7-0.6c-0.8-0.4-1.4-1-1.9-1.9s-0.7-2-0.7-3.4c0-1.2,0.2-2.3,0.5-3.4
		c0.4-1.1,0.9-2.1,1.6-3c0.7-0.9,1.5-1.6,2.5-2.1s2.1-0.8,3.3-0.8c1.4,0,2.5,0.3,3.2,1c0.8,0.6,1.1,1.5,1.1,2.5
		c0,0.8-0.3,1.6-0.8,2.2s-1.3,1.2-2.2,1.7c-0.9,0.4-1.9,0.8-3,1s-2.2,0.3-3.4,0.3c-0.2,0-0.4,0-0.5,0c-0.2,0-0.3,0-0.5,0l0.1-1.6
		c0.2,0,0.5,0,0.7,0.1s0.5,0,0.7,0c0.8,0,1.6-0.1,2.4-0.2c0.8-0.1,1.5-0.4,2.2-0.7s1.2-0.7,1.6-1.1c0.4-0.4,0.6-0.9,0.6-1.5
		s-0.2-1.1-0.7-1.5c-0.4-0.4-1.1-0.6-1.9-0.6c-0.9,0-1.6,0.2-2.3,0.7s-1.2,1.1-1.7,1.8s-0.8,1.6-1.1,2.5c-0.2,0.9-0.4,1.8-0.4,2.7
		c0,1.5,0.3,2.6,1,3.3c0.6,0.7,1.5,1,2.6,1c0.7,0,1.3-0.1,2.1-0.3s1.5-0.6,2.2-1l0.6,1.3c-0.9,0.6-1.8,1-2.7,1.3
		C773.8,219.5,772.9,219.6,772.1,219.6z"/>
	<path class="st1" d="M790.4,219.6c-0.7,0-1.4-0.2-2-0.6c-0.6-0.4-1.1-1-1.4-1.8s-0.5-1.8-0.5-3.1s0.2-2.6,0.6-3.8
		c0.4-1.2,1-2.2,1.7-3.1c0.7-0.9,1.6-1.6,2.6-2.1s2.1-0.8,3.2-0.8c0.7,0,1.4,0.1,2.2,0.3s1.5,0.6,2.3,1.1l-1-0.1l0.6-1.1h1.2
		l-2.2,14.1l-0.8-1.4l3.1,0.8l-0.2,1.3l-4.2,0.1l0.9-5.6l0.6-1c-0.4,1.5-1,2.8-1.8,3.8s-1.6,1.7-2.5,2.2
		C792,219.4,791.2,219.6,790.4,219.6z M791.2,217.8c0.5,0,1-0.2,1.6-0.5s1.1-0.8,1.7-1.4c0.5-0.6,1-1.4,1.5-2.3
		c0.4-0.9,0.7-2,0.9-3.3l0.6-4l0.4,0.8c-0.6-0.4-1.1-0.6-1.7-0.8c-0.6-0.2-1.1-0.3-1.6-0.3c-0.9,0-1.6,0.2-2.4,0.6
		c-0.7,0.4-1.3,1-1.9,1.7c-0.5,0.7-0.9,1.6-1.2,2.5c-0.3,1-0.4,2-0.4,3c0,1.4,0.2,2.4,0.7,3S790.5,217.8,791.2,217.8z"/>
	<path class="st1" d="M812.9,219.6c-0.8,0-1.4-0.2-2-0.5c-0.6-0.4-1-0.9-1.2-1.7c-0.2-0.7-0.3-1.6-0.1-2.7l1.4-8.8l0.2,0.5l-2.4-0.5
		l0.2-1.2l4.4-0.2l-1.6,9.8c-0.1,0.8-0.1,1.4,0,2c0.1,0.5,0.3,0.9,0.7,1.2c0.3,0.3,0.7,0.4,1.2,0.4s1.1-0.1,1.7-0.4
		c0.6-0.3,1.1-0.7,1.7-1.4c0.5-0.6,1-1.4,1.4-2.3c0.4-0.9,0.7-2,0.9-3.3l0.9-5.8h2.2l-2.1,13.4l-0.3-0.4l2.5,0.6l-0.2,1.2l-4.2,0.1
		l0.9-5.5l0.7-1c-0.5,1.6-1.1,2.9-1.9,3.8c-0.8,1-1.6,1.7-2.5,2.2C814.5,219.3,813.7,219.6,812.9,219.6z"/>
</g>
<g>
	<g class="st2">
		<path class="st1" d="M12.6,71.6H9.5l1.2-0.9v8l-0.8-1.1l4.6,1v2.9H1.9v-2.9l3.8-1.1l-0.9,1.2V56.3l1,1.2l-4-1v-2.9l8.8-0.2h3.6
			c2.2,0,4,0.4,5.4,1.1c1.4,0.8,2.5,1.8,3.1,3.1s1,2.8,1,4.4c0,1.8-0.4,3.4-1.2,4.9c-0.8,1.5-2.1,2.6-3.7,3.4
			C17.4,71.2,15.2,71.6,12.6,71.6z M13.5,57.5H9.7l0.9-0.9v11.8l-1.2-0.9h3.2c1.8,0,3.1-0.5,4.1-1.4c0.9-1,1.4-2.2,1.4-3.8
			c0-1.5-0.4-2.6-1.2-3.5C16.2,57.9,15,57.5,13.5,57.5z"/>
		<path class="st1" d="M36.8,82.1c-1.9,0-3.7-0.4-5.1-1.2c-1.5-0.8-2.6-2-3.4-3.6s-1.2-3.6-1.2-5.9c0-2.4,0.4-4.5,1.3-6.2
			c0.9-1.7,2.1-3,3.7-4c1.6-0.9,3.4-1.4,5.6-1.4c2.1,0,3.8,0.4,5.1,1.2s2.3,2,2.9,3.4c0.6,1.4,0.9,3,0.9,4.8c0,0.5,0,0.9-0.1,1.4
			c0,0.5-0.1,0.9-0.2,1.4H31.5v-3.3h9.8l-0.7,0.5c0-1.1-0.1-2-0.3-2.8s-0.6-1.4-1.1-1.9s-1.2-0.7-2.1-0.7c-1,0-1.9,0.3-2.5,0.9
			s-1.1,1.4-1.4,2.4c-0.3,1-0.4,2.1-0.4,3.4c0,1.4,0.2,2.7,0.5,3.8c0.3,1.1,0.9,2,1.7,2.6s1.8,1,3.1,1c0.9,0,1.9-0.2,2.9-0.5
			c1.1-0.3,2.2-0.8,3.3-1.5l1.9,3c-1.5,1.1-3.1,1.9-4.7,2.4C39.9,81.8,38.3,82.1,36.8,82.1z"/>
		<path class="st1" d="M57.9,82.1c-1.8,0-3.2-0.6-4.2-1.7c-0.9-1.1-1.4-2.8-1.4-4.9V63.2L53,64h-3.8v-3l3.9-0.9l-0.8,1v-5.4l5.6-1
			V61l-0.6-0.8h6.1L63.3,64h-6l0.6-0.7v11.5c0,1.1,0.2,2,0.6,2.5c0.4,0.5,0.9,0.8,1.7,0.8c0.4,0,0.9-0.1,1.4-0.2s1.1-0.3,1.7-0.6
			l1,3.1C62.1,81.5,60,82.1,57.9,82.1z"/>
		<path class="st1" d="M76.3,82.1c-1.9,0-3.7-0.4-5.1-1.2c-1.5-0.8-2.6-2-3.4-3.6s-1.2-3.6-1.2-5.9c0-2.4,0.4-4.5,1.3-6.2
			c0.9-1.7,2.1-3,3.7-4c1.6-0.9,3.4-1.4,5.6-1.4c2.1,0,3.8,0.4,5.1,1.2s2.3,2,2.9,3.4c0.6,1.4,0.9,3,0.9,4.8c0,0.5,0,0.9-0.1,1.4
			c0,0.5-0.1,0.9-0.2,1.4H71v-3.3h9.8l-0.7,0.5c0-1.1-0.1-2-0.3-2.8c-0.2-0.8-0.6-1.4-1.1-1.9s-1.2-0.7-2.1-0.7
			c-1,0-1.9,0.3-2.5,0.9s-1.1,1.4-1.4,2.4s-0.4,2.1-0.4,3.4c0,1.4,0.2,2.7,0.5,3.8c0.3,1.1,0.9,2,1.7,2.6c0.8,0.6,1.8,1,3.1,1
			c0.9,0,1.9-0.2,2.9-0.5c1.1-0.3,2.2-0.8,3.3-1.5l1.9,3c-1.5,1.1-3.1,1.9-4.7,2.4C79.3,81.8,77.8,82.1,76.3,82.1z"/>
		<path class="st1" d="M89.6,81.6v-2.9l3.2-0.9l-0.6,0.8V63.3l0.6,1l-3.3-1v-2.9l7-0.3l0.7,3.8l-0.7-0.2c1.2-1.3,2.4-2.2,3.6-2.9
			s2.4-1,3.8-1c0.9,0,1.8,0.1,2.7,0.4l-0.4,7.4H103l-0.6-4.3l0.5,1.1c-0.2-0.1-0.3-0.1-0.5-0.1s-0.3,0-0.5,0c-0.8,0-1.6,0.3-2.5,0.8
			c-0.8,0.5-1.5,1.2-2.1,2l0.4-1.5v13.3l-0.6-0.8l4,0.9v2.9H89.6V81.6z"/>
		<path class="st1" d="M126,82.1c-1.5,0-2.9-0.4-4.1-1.2c-1.2-0.8-2.1-2-2.8-3.6c-0.7-1.6-1-3.5-1-5.8c0-3.9,1-6.9,3-8.8
			c2-1.9,4.8-2.9,8.4-2.9c0.6,0,1.2,0,1.8,0.1s1.2,0.1,1.8,0.3l-1,0.6v-6.6l0.4,0.6l-3.3-1.1v-2.8l8.5-0.3v28l-0.7-0.8l3.4,1v2.8
			l-7,0.3l-0.7-3.4l0.6,0.2c-1.2,1.1-2.3,2-3.5,2.6C128.5,81.8,127.3,82.1,126,82.1z M128.2,78c0.7,0,1.4-0.2,2.2-0.6s1.6-1,2.4-1.7
			l-0.7,1.7V63l0.7,1.3c-1.3-0.3-2.4-0.5-3.4-0.5c-1.9,0-3.3,0.6-4.1,1.9c-0.9,1.3-1.3,3-1.3,5.2c0,1.4,0.2,2.7,0.5,3.8
			c0.3,1.1,0.8,1.9,1.5,2.5C126.5,77.7,127.3,78,128.2,78z"/>
		<path class="st1" d="M153.2,82.1c-1.9,0-3.7-0.4-5.1-1.2c-1.5-0.8-2.6-2-3.4-3.6c-0.8-1.6-1.2-3.6-1.2-5.9c0-2.4,0.4-4.5,1.3-6.2
			c0.9-1.7,2.1-3,3.7-4c1.6-0.9,3.4-1.4,5.6-1.4c2.1,0,3.8,0.4,5.1,1.2s2.3,2,2.9,3.4c0.6,1.4,0.9,3,0.9,4.8c0,0.5,0,0.9-0.1,1.4
			c0,0.5-0.1,0.9-0.2,1.4h-14.6v-3.3h9.8l-0.7,0.5c0-1.1-0.1-2-0.3-2.8s-0.6-1.4-1.1-1.9s-1.2-0.7-2.1-0.7c-1,0-1.9,0.3-2.5,0.9
			s-1.1,1.4-1.4,2.4c-0.3,1-0.4,2.1-0.4,3.4c0,1.4,0.2,2.7,0.5,3.8c0.3,1.1,0.9,2,1.7,2.6s1.8,1,3.1,1c0.9,0,1.9-0.2,2.9-0.5
			c1.1-0.3,2.2-0.8,3.3-1.5l1.9,3c-1.5,1.1-3.1,1.9-4.7,2.4C156.3,81.8,154.7,82.1,153.2,82.1z"/>
		<path class="st1" d="M191.8,73.1h3.4v8.5h-20v-2.9l3.6-1l-0.6,1.1V56.4l0.6,1.1l-3.6-1v-2.9l11.9-0.2v2.9l-3.8,1.2l0.6-1.1v22
			l-0.9-0.9h8.7l-0.8,0.9L191.8,73.1z"/>
		<path class="st1" d="M208,82.1c-1.9,0-3.7-0.4-5.1-1.2c-1.5-0.8-2.6-2-3.4-3.6c-0.8-1.6-1.2-3.6-1.2-5.9c0-2.4,0.4-4.5,1.3-6.2
			c0.9-1.7,2.1-3,3.7-4c1.6-0.9,3.4-1.4,5.6-1.4c2.1,0,3.8,0.4,5.1,1.2s2.3,2,2.9,3.4c0.6,1.4,0.9,3,0.9,4.8c0,0.5,0,0.9-0.1,1.4
			c0,0.5-0.1,0.9-0.2,1.4h-14.6v-3.3h9.8l-0.7,0.5c0-1.1-0.1-2-0.3-2.8s-0.6-1.4-1.1-1.9s-1.2-0.7-2.1-0.7c-1,0-1.9,0.3-2.5,0.9
			s-1.1,1.4-1.4,2.4c-0.3,1-0.4,2.1-0.4,3.4c0,1.4,0.2,2.7,0.5,3.8c0.3,1.1,0.9,2,1.7,2.6s1.8,1,3.1,1c0.9,0,1.9-0.2,2.9-0.5
			c1.1-0.3,2.2-0.8,3.3-1.5l1.9,3c-1.5,1.1-3.1,1.9-4.7,2.4C211.1,81.8,209.5,82.1,208,82.1z"/>
		<path class="st1" d="M231.1,82.1c-1.9,0-3.7-0.4-5.1-1.2c-1.5-0.8-2.6-2-3.4-3.6c-0.8-1.6-1.2-3.6-1.2-5.9c0-2.4,0.4-4.5,1.3-6.2
			c0.9-1.7,2.1-3,3.7-4c1.6-0.9,3.4-1.4,5.6-1.4c2.1,0,3.8,0.4,5.1,1.2s2.3,2,2.9,3.4c0.6,1.4,0.9,3,0.9,4.8c0,0.5,0,0.9-0.1,1.4
			c0,0.5-0.1,0.9-0.2,1.4H226v-3.3h9.8l-0.7,0.5c0-1.1-0.1-2-0.3-2.8s-0.6-1.4-1.1-1.9s-1.2-0.7-2.1-0.7c-1,0-1.9,0.3-2.5,0.9
			s-1.1,1.4-1.4,2.4c-0.3,1-0.4,2.1-0.4,3.4c0,1.4,0.2,2.7,0.5,3.8c0.3,1.1,0.9,2,1.7,2.6s1.8,1,3.1,1c0.9,0,1.9-0.2,2.9-0.5
			c1.1-0.3,2.2-0.8,3.3-1.5l1.9,3c-1.5,1.1-3.1,1.9-4.7,2.4C234.2,81.8,232.7,82.1,231.1,82.1z"/>
		<path class="st1" d="M252.6,82.1c-1.8,0-3.3-0.6-4.5-1.7c-1.2-1.2-1.8-2.9-1.8-5.3V63.4l0.5,0.8l-3.2-1v-2.9l8.2-0.3v14.1
			c0,1.3,0.3,2.2,0.8,2.8c0.6,0.6,1.3,0.9,2.2,0.9c0.7,0,1.5-0.2,2.4-0.6c0.9-0.4,1.7-1,2.6-1.8l-0.4,1V63.3l0.5,0.9l-3.2-1v-2.9
			l8.2-0.3v18.6l-0.7-1l3.4,1v2.8l-7,0.3l-0.8-3.9l0.8,0.3c-1.3,1.3-2.7,2.2-4.1,2.9C255.3,81.8,253.9,82.1,252.6,82.1z"/>
		<path class="st1" d="M293.9,60.4l8.5-0.3v2.8l-2.5,0.8l0.7-0.6l-5.1,18.6h-6l-4.3-17.2h1.1l-4.9,17.2h-6l-4.7-18.3l0.6,0.5
			l-2.4-0.6v-2.9l9.4-0.3v2.8l-2.9,0.8l0.6-0.4l3.4,15h-0.9l4.8-18L289,60l4.4,18.5h-0.8l3.7-15.1l0.5,0.5l-2.7-0.6v-2.9H293.9z"/>
	</g>
</g>
<g>
	
		<linearGradient id="SVGID_1_" gradientUnits="userSpaceOnUse" x1="932.9942" y1="156.9106" x2="3.674" y2="92.9038" gradientTransform="matrix(1 0 0 -1 0 240)">
		<stop  offset="0" style="stop-color:#603813"/>
		<stop  offset="0.4878" style="stop-color:#8D633B"/>
		<stop  offset="0.8147" style="stop-color:#A67C52"/>
		<stop  offset="1" style="stop-color:#754C24"/>
	</linearGradient>
	<path class="st3" d="M34.2,189.2L7.8,110.7l4.1,3.1l-11.4-3.1v-9l37-0.6v9l-12.2,3.5l2.1-4.4l19.1,64.4H44l20.9-63.4l1.4,3.5
		l-11.4-3v-9l33.4-0.6v9L77,113.5l4.1-3.1l-27.9,78.9h-19V189.2z"/>
	
		<linearGradient id="SVGID_00000031910405361306050990000007540893679803136670_" gradientUnits="userSpaceOnUse" x1="933.0691" y1="155.8237" x2="3.7489" y2="91.8169" gradientTransform="matrix(1 0 0 -1 0 240)">
		<stop  offset="0" style="stop-color:#603813"/>
		<stop  offset="0.4878" style="stop-color:#8D633B"/>
		<stop  offset="0.8147" style="stop-color:#A67C52"/>
		<stop  offset="1" style="stop-color:#754C24"/>
	</linearGradient>
	<path style="fill:url(#SVGID_00000031910405361306050990000007540893679803136670_);" d="M117.4,178.9l-1.2-1.5l9.6,2.8v9H91.5v-9
		l9.6-2.8l-1.2,1.5v-45.6l1.1,1.1l-9.5-2.6v-9l25.9-0.9V178.9z M108.1,112.1c-3.1,0-5.6-0.9-7.4-2.6s-2.8-4.2-2.8-7.5
		c0-3.5,1-6.1,2.9-7.8c2-1.7,4.4-2.6,7.4-2.6c2.9,0,5.3,0.9,7.2,2.6c1.9,1.7,2.9,4.3,2.9,7.7c0,3.4-1,6-2.9,7.7
		C113.5,111.3,111,112.1,108.1,112.1z"/>
	
		<linearGradient id="SVGID_00000056426334039574130950000007599291453111847074_" gradientUnits="userSpaceOnUse" x1="934.3624" y1="137.0448" x2="5.0422" y2="73.038" gradientTransform="matrix(1 0 0 -1 0 240)">
		<stop  offset="0" style="stop-color:#603813"/>
		<stop  offset="0.4878" style="stop-color:#8D633B"/>
		<stop  offset="0.8147" style="stop-color:#A67C52"/>
		<stop  offset="1" style="stop-color:#754C24"/>
	</linearGradient>
	<path style="fill:url(#SVGID_00000056426334039574130950000007599291453111847074_);" d="M168.3,120.9c9.8,0,17.5,2.9,23,8.8
		c5.5,5.8,8.2,14.1,8.2,24.9c0,7.5-1.3,13.9-4,19.3c-2.7,5.4-6.5,9.5-11.5,12.4s-11,4.4-18,4.4c-9.8,0-17.4-2.9-22.8-8.8
		c-5.4-5.8-8.1-14.1-8.1-24.9c0-7.5,1.3-13.9,3.9-19.3s6.4-9.5,11.3-12.4C155.3,122.3,161.3,120.9,168.3,120.9z M167.4,133.4
		c-4.8,0-8.3,1.9-10.6,5.6c-2.3,3.7-3.5,9.4-3.5,17.2s1.1,13.4,3.4,16.8c2.2,3.5,5.7,5.2,10.2,5.2c3.3,0,6-0.8,8.1-2.5
		s3.7-4.2,4.8-7.6c1.1-3.4,1.6-7.6,1.6-12.6c0-7.6-1.2-13.1-3.5-16.7C175.5,135.1,172,133.4,167.4,133.4z"/>
	
		<linearGradient id="SVGID_00000168100047387124703240000006616675691906688660_" gradientUnits="userSpaceOnUse" x1="934.7198" y1="131.8556" x2="5.3997" y2="67.8488" gradientTransform="matrix(1 0 0 -1 0 240)">
		<stop  offset="0" style="stop-color:#603813"/>
		<stop  offset="0.4878" style="stop-color:#8D633B"/>
		<stop  offset="0.8147" style="stop-color:#A67C52"/>
		<stop  offset="1" style="stop-color:#754C24"/>
	</linearGradient>
	<path style="fill:url(#SVGID_00000168100047387124703240000006616675691906688660_);" d="M244,120.9c9.8,0,17.5,2.9,23,8.8
		c5.5,5.8,8.2,14.1,8.2,24.9c0,7.5-1.3,13.9-4,19.3c-2.7,5.4-6.5,9.5-11.5,12.4s-11,4.4-18,4.4c-9.8,0-17.4-2.9-22.8-8.8
		c-5.4-5.8-8.1-14.1-8.1-24.9c0-7.5,1.3-13.9,3.9-19.3s6.4-9.5,11.3-12.4C231,122.3,237,120.9,244,120.9z M243.1,133.4
		c-4.8,0-8.3,1.9-10.6,5.6c-2.3,3.7-3.5,9.4-3.5,17.2s1.1,13.4,3.4,16.8c2.2,3.5,5.7,5.2,10.2,5.2c3.3,0,6-0.8,8.1-2.5
		s3.7-4.2,4.8-7.6c1.1-3.4,1.6-7.6,1.6-12.6c0-7.6-1.2-13.1-3.5-16.7C251.3,135.1,247.8,133.4,243.1,133.4z"/>
	
		<linearGradient id="SVGID_00000008857880096556586680000007958041415220204471_" gradientUnits="userSpaceOnUse" x1="935.2368" y1="124.3494" x2="5.9166" y2="60.3426" gradientTransform="matrix(1 0 0 -1 0 240)">
		<stop  offset="0" style="stop-color:#603813"/>
		<stop  offset="0.4878" style="stop-color:#8D633B"/>
		<stop  offset="0.8147" style="stop-color:#A67C52"/>
		<stop  offset="1" style="stop-color:#754C24"/>
	</linearGradient>
	<path style="fill:url(#SVGID_00000008857880096556586680000007958041415220204471_);" d="M353.5,120.9c9.8,0,17.5,2.9,23,8.8
		c5.5,5.8,8.2,14.1,8.2,24.9c0,7.5-1.3,13.9-4,19.3c-2.7,5.4-6.5,9.5-11.5,12.4s-11,4.4-18,4.4c-9.8,0-17.4-2.9-22.8-8.8
		c-5.4-5.8-8.1-14.1-8.1-24.9c0-7.5,1.3-13.9,3.9-19.3s6.4-9.5,11.3-12.4C340.5,122.3,346.5,120.9,353.5,120.9z M352.6,133.4
		c-4.8,0-8.3,1.9-10.6,5.6c-2.3,3.7-3.5,9.4-3.5,17.2s1.1,13.4,3.4,16.8c2.2,3.5,5.7,5.2,10.2,5.2c3.3,0,6-0.8,8.1-2.5
		s3.7-4.2,4.8-7.6c1.1-3.4,1.6-7.6,1.6-12.6c0-7.6-1.2-13.1-3.5-16.7C360.8,135.1,357.3,133.4,352.6,133.4z"/>
	
		<linearGradient id="SVGID_00000047744452776653347280000002906342995853545901_" gradientUnits="userSpaceOnUse" x1="935.635" y1="118.5673" x2="6.3149" y2="54.5605" gradientTransform="matrix(1 0 0 -1 0 240)">
		<stop  offset="0" style="stop-color:#603813"/>
		<stop  offset="0.4878" style="stop-color:#8D633B"/>
		<stop  offset="0.8147" style="stop-color:#A67C52"/>
		<stop  offset="1" style="stop-color:#754C24"/>
	</linearGradient>
	<path style="fill:url(#SVGID_00000047744452776653347280000002906342995853545901_);" d="M395.9,189.1v-9l10.5-3l-2.1,2.5V132
		l2.1,2.9l-10.5-3.1v-9l22-1l2.2,12l-2.2-0.9c4-4.1,8.2-7.1,12.8-9.1c4.5-2,8.8-2.9,12.9-2.9c5.7,0,10.4,1.8,14.1,5.3
		c3.8,3.5,5.6,8.9,5.5,16.1v37.4l-1.6-2.5l10,3v9h-33.4v-9l9.5-2.8l-2,2.6v-34c0-4.1-0.9-7.1-2.7-9c-1.8-1.9-4.1-2.9-7.1-2.9
		c-2.2,0-4.7,0.6-7.4,1.9c-2.7,1.2-5.3,3.1-7.9,5.6l1.1-2.6v41l-1.6-2.6l9.1,2.8v9h-33.3V189.1z"/>
	
		<linearGradient id="SVGID_00000173876625406885978570000014881598837341591687_" gradientUnits="userSpaceOnUse" x1="935.0771" y1="126.6671" x2="5.7571" y2="62.6603" gradientTransform="matrix(1 0 0 -1 0 240)">
		<stop  offset="0" style="stop-color:#603813"/>
		<stop  offset="0.4878" style="stop-color:#8D633B"/>
		<stop  offset="0.8147" style="stop-color:#A67C52"/>
		<stop  offset="1" style="stop-color:#754C24"/>
	</linearGradient>
	<path style="fill:url(#SVGID_00000173876625406885978570000014881598837341591687_);" d="M505.1,190.6c-4.8,0-9.1-1.3-12.8-3.8
		c-3.7-2.5-6.6-6.3-8.8-11.3s-3.2-11.1-3.2-18.2c0-12.3,3.1-21.5,9.4-27.4c6.2-6,15-8.9,26.4-8.9c1.8,0,3.7,0.1,5.5,0.2
		c1.8,0.2,3.8,0.5,5.8,0.9l-3.2,2v-20.6l1.2,1.8l-10.2-3.4V93l26.5-1v87.5l-2.1-2.5l10.5,3.2v8.9l-22,1l-2.2-10.8l1.8,0.6
		c-3.7,3.6-7.3,6.3-10.9,8.1S509.1,190.6,505.1,190.6z M511.9,177.7c2.2,0,4.5-0.6,6.9-1.8c2.4-1.2,4.9-3,7.5-5.3l-2.1,5.2V131
		l2.1,4c-3.9-1.1-7.5-1.6-10.6-1.6c-5.9,0-10.2,2-12.9,5.9c-2.7,4-4.1,9.4-4.1,16.3c0,4.5,0.5,8.4,1.6,11.8c1.1,3.3,2.6,5.9,4.6,7.7
		C506.8,176.8,509.1,177.7,511.9,177.7z"/>
	
		<linearGradient id="SVGID_00000083075887675212505730000006751200863024630177_" gradientUnits="userSpaceOnUse" x1="936.361" y1="108.0278" x2="7.0408" y2="44.021" gradientTransform="matrix(1 0 0 -1 0 240)">
		<stop  offset="0" style="stop-color:#603813"/>
		<stop  offset="0.4878" style="stop-color:#8D633B"/>
		<stop  offset="0.8147" style="stop-color:#A67C52"/>
		<stop  offset="1" style="stop-color:#754C24"/>
	</linearGradient>
	<path style="fill:url(#SVGID_00000083075887675212505730000006751200863024630177_);" d="M589.9,190.6c-6.1,0-11.4-1.3-15.9-3.8
		s-8.1-6.3-10.7-11.3c-2.6-5-3.9-11.2-3.9-18.5c0-7.5,1.4-14,4.1-19.4c2.7-5.4,6.5-9.6,11.4-12.4c4.9-2.9,10.7-4.3,17.4-4.3
		c6.5,0,11.8,1.3,15.9,3.9c4.1,2.6,7.1,6.1,9,10.6s2.9,9.5,2.9,15.1c0,1.4-0.1,2.8-0.2,4.2s-0.3,2.9-0.6,4.6h-45.8v-10.4h30.8
		l-2.2,1.6c0.1-3.3-0.2-6.3-0.9-8.8s-1.8-4.5-3.5-5.9s-4-2.1-6.9-2.1c-3.2,0-5.8,0.9-7.8,2.8s-3.4,4.4-4.2,7.6
		c-0.8,3.2-1.2,6.7-1.2,10.5c0,4.5,0.5,8.5,1.6,12c1,3.5,2.8,6.2,5.3,8.2s5.8,3,9.8,3c2.7,0,5.7-0.5,9-1.6c3.3-1,6.8-2.6,10.2-4.7
		l6,9.4c-4.9,3.3-9.9,5.8-14.9,7.4S594.6,190.6,589.9,190.6z"/>
	
		<linearGradient id="SVGID_00000155858751881306824150000004983848366155335854_" gradientUnits="userSpaceOnUse" x1="936.6428" y1="103.9338" x2="7.3227" y2="39.927" gradientTransform="matrix(1 0 0 -1 0 240)">
		<stop  offset="0" style="stop-color:#603813"/>
		<stop  offset="0.4878" style="stop-color:#8D633B"/>
		<stop  offset="0.8147" style="stop-color:#A67C52"/>
		<stop  offset="1" style="stop-color:#754C24"/>
	</linearGradient>
	<path style="fill:url(#SVGID_00000155858751881306824150000004983848366155335854_);" d="M631.4,189.1v-9l10.1-2.9l-1.8,2.6v-48
		l2,3l-10.4-3.1v-9l22-1l2.2,11.9l-2.2-0.5c3.8-3.9,7.5-6.9,11.1-9.1c3.7-2.1,7.6-3.2,11.8-3.2c2.7,0,5.5,0.4,8.5,1.2l-1.1,23.1
		h-10.1l-1.9-13.5l1.6,3.4c-0.5-0.2-1-0.3-1.6-0.4c-0.5-0.1-1.1-0.1-1.6-0.1c-2.6,0-5.1,0.8-7.7,2.4c-2.5,1.6-4.7,3.6-6.6,6.1
		l1.4-4.8v41.5l-2-2.6l12.4,2.9v9h-36.1V189.1z"/>
	
		<linearGradient id="SVGID_00000076593578559503546860000013540464136502028165_" gradientUnits="userSpaceOnUse" x1="937.0549" y1="97.9542" x2="7.7347" y2="33.9474" gradientTransform="matrix(1 0 0 -1 0 240)">
		<stop  offset="0" style="stop-color:#603813"/>
		<stop  offset="0.4878" style="stop-color:#8D633B"/>
		<stop  offset="0.8147" style="stop-color:#A67C52"/>
		<stop  offset="1" style="stop-color:#754C24"/>
	</linearGradient>
	<path style="fill:url(#SVGID_00000076593578559503546860000013540464136502028165_);" d="M769.6,122.9l26.6-1v8.9l-7.8,2.5l2.2-1.9
		l-15.9,58H756l-13.5-53.8l3.4,0.1l-15.2,53.6h-18.9L697,132.1l1.9,1.6l-7.6-1.9v-9l29.5-1v8.9l-9.1,2.5l1.9-1.4l10.5,47h-2.9
		l14.9-56.1l17.9-1l13.8,57.8H765l11.5-47.2l1.6,1.6l-8.5-2V122.9z"/>
	
		<linearGradient id="SVGID_00000159469273472383468430000005795656724035943564_" gradientUnits="userSpaceOnUse" x1="936.4264" y1="107.078" x2="7.1062" y2="43.0712" gradientTransform="matrix(1 0 0 -1 0 240)">
		<stop  offset="0" style="stop-color:#603813"/>
		<stop  offset="0.4878" style="stop-color:#8D633B"/>
		<stop  offset="0.8147" style="stop-color:#A67C52"/>
		<stop  offset="1" style="stop-color:#754C24"/>
	</linearGradient>
	<path style="fill:url(#SVGID_00000159469273472383468430000005795656724035943564_);" d="M828.5,178.9l-1.2-1.5l9.6,2.8v9h-34.2v-9
		l9.6-2.8l-1.2,1.5v-45.6l1.1,1.1l-9.5-2.6v-9l25.9-0.9L828.5,178.9L828.5,178.9z M819.2,112.1c-3.1,0-5.6-0.9-7.4-2.6
		s-2.8-4.2-2.8-7.5c0-3.5,1-6.1,2.9-7.8c2-1.7,4.4-2.6,7.4-2.6c2.9,0,5.3,0.9,7.2,2.6s2.9,4.3,2.9,7.7c0,3.4-1,6-2.9,7.7
		C824.6,111.3,822.2,112.1,819.2,112.1z"/>
	
		<linearGradient id="SVGID_00000109013254089223055610000014447250776987851944_" gradientUnits="userSpaceOnUse" x1="937.5809" y1="90.315" x2="8.2607" y2="26.3082" gradientTransform="matrix(1 0 0 -1 0 240)">
		<stop  offset="0" style="stop-color:#603813"/>
		<stop  offset="0.4878" style="stop-color:#8D633B"/>
		<stop  offset="0.8147" style="stop-color:#A67C52"/>
		<stop  offset="1" style="stop-color:#754C24"/>
	</linearGradient>
	<path style="fill:url(#SVGID_00000109013254089223055610000014447250776987851944_);" d="M844.1,219.4c-1.3,0-2.7-0.1-4-0.2
		c-1.3-0.2-2.8-0.4-4.2-0.6l1.2-12.4c0.9,0.1,1.8,0.2,2.6,0.2c0.8,0.1,1.6,0.1,2.4,0.1c4.1,0,7-0.9,8.8-2.8c1.8-1.8,2.7-5,2.7-9.5
		v-61.6l1.6,2l-10-2.9v-9l25.9-0.9V189c0,5.5-0.6,10.2-1.9,14c-1.3,3.8-3.1,7-5.4,9.4c-2.3,2.4-5.2,4.2-8.5,5.3
		C851.9,218.8,848.2,219.4,844.1,219.4z M861.2,112.1c-3.1,0-5.6-0.9-7.4-2.6s-2.8-4.2-2.8-7.5c0-3.5,1-6.1,2.9-7.8
		c2-1.7,4.4-2.6,7.4-2.6c2.9,0,5.3,0.9,7.2,2.6s2.9,4.3,2.9,7.7c0,3.4-1,6-2.9,7.7C866.6,111.3,864.2,112.1,861.2,112.1z"/>
	
		<linearGradient id="SVGID_00000025419044106524102930000005634627888955873425_" gradientUnits="userSpaceOnUse" x1="937.878" y1="86.0022" x2="8.5578" y2="21.9953" gradientTransform="matrix(1 0 0 -1 0 240)">
		<stop  offset="0" style="stop-color:#603813"/>
		<stop  offset="0.4878" style="stop-color:#8D633B"/>
		<stop  offset="0.8147" style="stop-color:#A67C52"/>
		<stop  offset="1" style="stop-color:#754C24"/>
	</linearGradient>
	<path style="fill:url(#SVGID_00000025419044106524102930000005634627888955873425_);" d="M906,139.2c0,2,0.9,3.6,2.6,4.7
		c1.7,1.1,3.9,2.1,6.5,2.9c2.6,0.8,5.4,1.7,8.4,2.7s5.8,2.1,8.4,3.6c2.6,1.4,4.8,3.3,6.4,5.8c1.7,2.4,2.5,5.5,2.5,9.4
		c0,5-1.3,9.1-4,12.4c-2.7,3.3-6.3,5.8-10.9,7.4c-4.6,1.7-9.7,2.5-15.4,2.5c-3.4,0-7-0.3-10.8-0.9c-3.8-0.6-7.6-1.4-11.5-2.4
		l0.9-18.9h11l1.4,11l-1.5-2.1c1.7,0.5,3.5,0.9,5.5,1.2s3.8,0.4,5.4,0.4c2.1,0,4.1-0.3,5.9-0.9c1.9-0.6,3.4-1.4,4.6-2.5
		c1.2-1.1,1.8-2.5,1.8-4.2c0-2.1-0.8-3.7-2.4-4.9c-1.6-1.2-3.8-2.2-6.4-3.1s-5.4-1.8-8.3-2.6c-2.9-0.9-5.7-2.1-8.3-3.6
		s-4.8-3.5-6.4-5.9c-1.7-2.5-2.5-5.7-2.5-9.8c0-4.8,1.2-8.8,3.6-11.8c2.4-3,5.6-5.3,9.7-6.7c4-1.4,8.5-2.1,13.3-2.1
		c3.4,0,7,0.3,10.9,0.9c3.8,0.6,7.8,1.5,11.9,2.6l-0.9,16.9h-10.9l-2.1-9.9l2.4,2.5c-3.9-0.9-7.4-1.4-10.5-1.4c-3,0-5.5,0.6-7.4,1.8
		C906.9,135.4,906,137.1,906,139.2z"/>
</g>
<g>
	<g>
		<path class="st1" d="M357.6,0c-1.5,0.5-3.8,1.2-6.3,1.8c-3.3,0.7-11.5,1-14.4,0.1l-71.5,229.6l7.5,2.4L343.3,9.2
			c0,0,0.7-0.4,2-0.8c2-0.5,5.6-0.5,10.7,1.9l1.6-5.1l0,0l1.5-4.9L357.6,0z"/>
		<polygon class="st1" points="278.9,214.7 285.8,192.8 297.7,196.6 290.9,218.5 		"/>
	</g>
	
		<rect x="227.7" y="102.5" transform="matrix(0.2989 -0.9543 0.9543 0.2989 129.7266 382.5384)" class="st1" width="195.1" height="1"/>
</g>
<circle class="st0" cx="287.5" cy="206.1" r="2"/>
</svg>
